<svg width="137" height="49" viewBox="0 0 137 49" fill="none" xmlns="http://www.w3.org/2000/svg">
<path fill-rule="evenodd" clip-rule="evenodd" d="M78.6201 39.7627L76.0187 43.9319H81.1174L78.6201 39.7627ZM83.3778 32.1374L88.1357 39.7629L109.405 4.25409L100.775 4.25411L83.3778 32.1374Z" fill="#698FBB"/>
<path fill-rule="evenodd" clip-rule="evenodd" d="M71.0549 27.6217L61.2853 43.9319H51.6656L66.5425 20.0884L71.0549 27.6217ZM71.1783 12.6585L75.6881 19.8865L85.0516 4.25409L76.4222 4.25411L71.1783 12.6585Z" fill="#698FBB"/>
<path d="M39.6733 32.1815C39.6733 33.6027 39.4888 34.8855 39.1196 36.0298C38.7689 37.1557 38.2983 38.1524 37.7077 39.0198C37.117 39.8873 36.4249 40.6256 35.6312 41.2347C34.8376 41.8438 34.0163 42.3421 33.1672 42.7297C32.3182 43.1173 31.4507 43.4034 30.5648 43.5879C29.6973 43.7725 28.876 43.8648 28.1008 43.8648H0.332226V36.6666H28.1008C29.4851 36.6666 30.5556 36.2605 31.3123 35.4484C32.0875 34.6363 32.4751 33.5473 32.4751 32.1815C32.4751 31.5171 32.3736 30.908 32.1706 30.3543C31.9675 29.8006 31.6722 29.3207 31.2846 28.9146C30.9155 28.5086 30.4541 28.1948 29.9003 27.9733C29.3651 27.7518 28.7652 27.6411 28.1008 27.6411H11.5449C10.3821 27.6411 9.12699 27.4381 7.77963 27.032C6.43226 26.6075 5.17719 25.9338 4.0144 25.011C2.87006 24.0881 1.9103 22.8792 1.13511 21.3842C0.378369 19.8892 0 18.0619 0 15.9024C0 13.743 0.378369 11.925 1.13511 10.4484C1.9103 8.95338 2.87006 7.74445 4.0144 6.8216C5.17719 5.88029 6.43226 5.20661 7.77963 4.80055C9.12699 4.37604 10.3821 4.16379 11.5449 4.16379H36.0465V11.362H11.5449C10.179 11.362 9.10853 11.7773 8.33334 12.6079C7.5766 13.4384 7.19823 14.5366 7.19823 15.9024C7.19823 17.2867 7.5766 18.3849 8.33334 19.197C9.10853 19.9907 10.179 20.3875 11.5449 20.3875H28.1008H28.1562C28.9313 20.406 29.7527 20.5167 30.6202 20.7197C31.4876 20.9043 32.3459 21.1996 33.1949 21.6057C34.0624 22.0117 34.8837 22.5285 35.6589 23.156C36.4341 23.7651 37.117 24.5034 37.7077 25.3709C38.3167 26.2384 38.7966 27.235 39.1473 28.3609C39.498 29.4868 39.6733 30.7603 39.6733 32.1815Z" fill="#C9C101"/>
<path d="M97.3267 32.1815C97.3267 33.6027 97.5112 34.8855 97.8804 36.0298C98.2311 37.1557 98.7017 38.1524 99.2923 39.0198C99.883 39.8873 100.575 40.6256 101.369 41.2347C102.162 41.8438 102.984 42.3421 103.833 42.7297C104.682 43.1173 105.549 43.4034 106.435 43.5879C107.303 43.7725 108.124 43.8648 108.899 43.8648H136.668V36.6666H108.899C107.515 36.6666 106.444 36.2605 105.688 35.4484C104.913 34.6363 104.525 33.5473 104.525 32.1815C104.525 31.5171 104.626 30.908 104.829 30.3543C105.032 29.8006 105.328 29.3207 105.715 28.9146C106.085 28.5086 106.546 28.1948 107.1 27.9733C107.635 27.7518 108.235 27.6411 108.899 27.6411H125.455C126.618 27.6411 127.873 27.4381 129.22 27.032C130.568 26.6075 131.823 25.9338 132.986 25.011C134.13 24.0881 135.09 22.8792 135.865 21.3842C136.622 19.8892 137 18.0619 137 15.9024C137 13.743 136.622 11.925 135.865 10.4484C135.09 8.95338 134.13 7.74445 132.986 6.8216C131.823 5.88029 130.568 5.20661 129.22 4.80055C127.873 4.37604 126.618 4.16379 125.455 4.16379H100.953V11.362H125.455C126.821 11.362 127.891 11.7773 128.667 12.6079C129.423 13.4384 129.802 14.5366 129.802 15.9024C129.802 17.2867 129.423 18.3849 128.667 19.197C127.891 19.9907 126.821 20.3875 125.455 20.3875H108.899H108.844C108.069 20.406 107.247 20.5167 106.38 20.7197C105.512 20.9043 104.654 21.1996 103.805 21.6057C102.938 22.0117 102.116 22.5285 101.341 23.156C100.566 23.7651 99.883 24.5034 99.2923 25.3709C98.6833 26.2384 98.2034 27.235 97.8527 28.3609C97.502 29.4868 97.3267 30.7603 97.3267 32.1815Z" fill="#698FBB"/>
<path d="M85.6295 43.9319L60.8729 4.25412L52.2434 4.25409L76.0098 43.9319L85.6295 43.9319Z" fill="#C9C101"/>
<path d="M61.0352 43.9319L36.2786 4.25412L27.6491 4.25409L51.4154 43.9319L61.0352 43.9319Z" fill="#C9C101"/>
</svg>
