<svg display="none" xmlns="http://www.w3.org/2000/svg">
    <symbol id="documnet">
        <g>
            <path d="M4.38118 10.0972V18.9849C4.38118 19.5659 4.61197 20.1231 5.02278 20.5339C5.43359 20.9447 5.99078 21.1755 6.57175 21.1755H16.7944C17.3754 21.1755 17.9326 20.9447 18.3434 20.5339C18.7542 20.1231 18.985 19.5659 18.985 18.9849V4.38114C18.985 3.80016 18.7542 3.24298 18.3434 2.83217C17.9326 2.42136 17.3754 2.19057 16.7944 2.19057H12.2878C11.9006 2.19063 11.5293 2.34444 11.2555 2.61818L4.8088 9.06485C4.53505 9.33866 4.38124 9.70998 4.38118 10.0972Z" stroke="#C9C101" stroke-width="1.46038" stroke-linejoin="round"/>
            <path d="M15.3341 16.7944H8.0322M11.6832 2.55566V8.03209C11.6832 8.41941 11.5293 8.79086 11.2554 9.06474C10.9815 9.33861 10.6101 9.49247 10.2228 9.49247H4.74635L11.6832 2.55566ZM15.3341 13.1434H8.0322H15.3341Z" stroke="#C9C101" stroke-width="1.46038" stroke-linecap="round" stroke-linejoin="round"/>
        </g>
    </symbol>

    <symbol id="mail" width="19" height="19"  fill="none"  viewBox="0 0 19 19">
        <path d="M15.6959 2.9847H3.25762C2.70799 2.98528 2.18105 3.20388 1.7924 3.59253C1.40376 3.98117 1.18516 4.50812 1.18457 5.05775V13.9423C1.18516 14.4919 1.40376 15.0188 1.7924 15.4075C2.18105 15.7961 2.70799 16.0147 3.25762 16.0153H15.6959C16.2456 16.0147 16.7725 15.7961 17.1611 15.4075C17.5498 15.0188 17.7684 14.4919 17.769 13.9423V5.05775C17.7684 4.50812 17.5498 3.98117 17.1611 3.59253C16.7725 3.20388 16.2456 2.98528 15.6959 2.9847ZM15.171 6.41374L9.8403 10.5598C9.73635 10.6407 9.60844 10.6845 9.47678 10.6845C9.34511 10.6845 9.2172 10.6407 9.11325 10.5598L3.78255 6.41374C3.71992 6.36645 3.66731 6.30717 3.62779 6.23937C3.58826 6.17157 3.5626 6.09658 3.55231 6.01878C3.54201 5.94097 3.54728 5.8619 3.56781 5.78615C3.58834 5.71039 3.62372 5.63948 3.6719 5.57752C3.72007 5.51556 3.78008 5.46379 3.84843 5.42523C3.91679 5.38666 3.99212 5.36206 4.07007 5.35286C4.14801 5.34366 4.227 5.35005 4.30246 5.37164C4.37791 5.39323 4.44832 5.42961 4.5096 5.47865L9.47678 9.34193L14.444 5.47865C14.5682 5.38485 14.7243 5.34371 14.8786 5.36413C15.0329 5.38455 15.173 5.46488 15.2685 5.58775C15.364 5.71063 15.4074 5.86617 15.3891 6.02074C15.3709 6.17531 15.2925 6.31649 15.171 6.41374Z" fill="white"/>
    </symbol>

    <symbol id="time" width="20" height="20"  fill="none" viewBox="0 0 20 20">
        <path d="M10 1.875C5.51289 1.875 1.875 5.51289 1.875 10C1.875 14.4801 5.52031 18.125 10 18.125C14.4867 18.125 18.125 14.4867 18.125 10C18.125 5.51992 14.4801 1.875 10 1.875ZM14.2188 11.25H9.53125C9.48981 11.25 9.45007 11.2335 9.42076 11.2042C9.39146 11.1749 9.375 11.1352 9.375 11.0938V4.53125C9.375 4.48981 9.39146 4.45007 9.42076 4.42076C9.45007 4.39146 9.48981 4.375 9.53125 4.375H10.4688C10.5102 4.375 10.5499 4.39146 10.5792 4.42076C10.6085 4.45007 10.625 4.48981 10.625 4.53125V10H14.2188C14.2602 10 14.2999 10.0165 14.3292 10.0458C14.3585 10.0751 14.375 10.1148 14.375 10.1562V11.0938C14.375 11.1352 14.3585 11.1749 14.3292 11.2042C14.2999 11.2335 14.2602 11.25 14.2188 11.25Z" fill="white"/>
    </symbol>

    <symbol id="tel" width="17" height="17"  fill="none" viewBox="0 0 17 17">
        <path d="M15.182 11.7331C15.0166 11.5569 14.4324 11.0358 13.3584 10.3463C12.2765 9.65083 11.4786 9.21718 11.2497 9.11606C11.2296 9.10711 11.2074 9.10383 11.1855 9.10657C11.1636 9.1093 11.1428 9.11796 11.1255 9.13159C10.7568 9.4191 10.1362 9.94721 10.1029 9.97574C9.88795 10.1599 9.88795 10.1599 9.71202 10.1025C9.40263 10.0011 8.44151 9.49074 7.60402 8.65135C6.76652 7.81195 6.22986 6.82706 6.12842 6.51799C6.07041 6.34174 6.07041 6.34174 6.25522 6.12682C6.28375 6.09354 6.81217 5.47287 7.09968 5.10452C7.11332 5.08717 7.12197 5.06644 7.12471 5.04455C7.12744 5.02265 7.12416 5.00043 7.11522 4.98026C7.0141 4.75107 6.58045 3.95352 5.88497 2.87163C5.19456 1.79797 4.67406 1.21376 4.49781 1.04829C4.48164 1.03302 4.46165 1.02241 4.43994 1.01755C4.41824 1.0127 4.39563 1.01379 4.3745 1.02071C3.75842 1.23242 3.16399 1.50257 2.59934 1.82745C2.05425 2.14433 1.53819 2.5087 1.05717 2.91632C1.04038 2.9306 1.02779 2.94917 1.02076 2.97006C1.01372 2.99094 1.0125 3.01335 1.01723 3.03488C1.08348 3.34363 1.40016 4.63252 2.38284 6.41782C3.38548 8.23989 4.08033 9.17343 5.55276 10.6408C7.02519 12.1081 7.98821 12.8448 9.81219 13.8475C11.5975 14.8302 12.887 15.1472 13.1951 15.2128C13.2167 15.2175 13.2391 15.2162 13.2601 15.2092C13.281 15.2022 13.2996 15.1896 13.314 15.1728C13.7216 14.6918 14.0858 14.1758 14.4026 13.6307C14.7274 13.066 14.9975 12.4716 15.2093 11.8555C15.2161 11.8345 15.2171 11.8121 15.2123 11.7906C15.2075 11.7691 15.1971 11.7493 15.182 11.7331Z" fill="#C9C101"/>
    </symbol>


    <symbol id="arrow" width="8" height="5"  fill="none" viewBox="0 0 8 5">
        <g>
            <path d="M0.296892 0.954533L3.57298 4.77766C3.62579 4.83925 3.6913 4.88869 3.76501 4.92258C3.83872 4.95648 3.91889 4.97403 4.00002 4.97403C4.08115 4.97403 4.16132 4.95648 4.23503 4.92258C4.30873 4.88869 4.37424 4.83925 4.42705 4.77766L7.70314 0.954533C8.0158 0.589612 7.75658 0.0259399 7.27611 0.0259399H0.722985C0.242517 0.0259399 -0.0167021 0.589612 0.296892 0.954533Z" fill="white"/>
        </g>
    </symbol>
        
    <symbol id="skype" width="26" height="26" fill="none"  viewBox="0 0 26 26">
        <circle cx="13" cy="13" r="13" fill="#C9C101"/>
        <path d="M19.5112 15.0805C19.6206 14.5883 19.6752 14.0855 19.6739 13.5813C19.6739 9.71915 16.4967 6.58544 12.5754 6.58544C12.1691 6.58514 11.7636 6.61846 11.3628 6.68505C10.7075 6.27593 9.94994 6.06013 9.17738 6.06249C6.90696 6.06249 5.06252 7.87936 5.06252 10.1182C5.06011 10.8414 5.25528 11.5515 5.62698 12.1719C5.53192 12.6346 5.48386 13.1057 5.48354 13.578C5.48354 17.4442 8.66074 20.5739 12.578 20.5739C13.0133 20.575 13.4478 20.5361 13.876 20.4577C14.4761 20.7737 15.1444 20.9384 15.8227 20.9375C18.0971 20.9375 19.9375 19.1206 19.9375 16.8817C19.9413 16.2559 19.7951 15.6382 19.5112 15.0805ZM16.2188 16.9199C15.8894 17.3768 15.405 17.741 14.7774 17.9967C14.1499 18.2524 13.4085 18.3808 12.5561 18.3808C11.5371 18.3808 10.6848 18.2025 10.0144 17.8539C9.54972 17.6093 9.14893 17.2591 8.84436 16.8313C8.54188 16.4053 8.3908 15.9793 8.3908 15.5695C8.3908 15.3139 8.49041 15.0931 8.68531 14.9071C8.87922 14.7288 9.1309 14.6359 9.42541 14.6359C9.66946 14.6359 9.87863 14.7056 10.0493 14.849C10.212 14.9845 10.3514 15.186 10.4637 15.4493C10.5725 15.7015 10.7098 15.9404 10.8731 16.1612C11.013 16.3432 11.2106 16.4942 11.4661 16.6144C11.7257 16.7346 12.0704 16.7964 12.4954 16.7964C13.0804 16.7964 13.5609 16.6725 13.9211 16.4285C14.2777 16.1921 14.4484 15.9056 14.4484 15.5569C14.4484 15.282 14.3591 15.0649 14.1731 14.8945C13.9796 14.7162 13.7275 14.5768 13.4138 14.4838C13.092 14.3842 12.6544 14.2786 12.1119 14.1664C11.3758 14.0113 10.7505 13.8254 10.2525 13.6162C9.74516 13.403 9.33444 13.1049 9.03196 12.737C8.72582 12.3611 8.57475 11.8886 8.57475 11.3345C8.56955 10.8223 8.73901 10.3236 9.0552 9.92069C9.37295 9.51395 9.83414 9.1962 10.4348 8.97938C11.0238 8.76257 11.7251 8.65399 12.5153 8.65399C13.1508 8.65399 13.705 8.7277 14.1698 8.86716C14.6347 9.00661 15.0301 9.20417 15.3439 9.44423C15.6576 9.68429 15.8864 9.93995 16.0335 10.2079C16.1806 10.4758 16.2546 10.7465 16.2546 11.0048C16.2546 11.2525 16.1577 11.4812 15.9638 11.6788C15.8697 11.7767 15.7565 11.854 15.6311 11.906C15.5057 11.958 15.371 11.9835 15.2353 11.9809C14.972 11.9809 14.7665 11.9189 14.6234 11.795C14.4905 11.6788 14.3521 11.5005 14.201 11.2408C14.0227 10.9118 13.8096 10.6482 13.5655 10.4622C13.3251 10.2843 12.93 10.1913 12.3798 10.1913C11.8722 10.1913 11.4578 10.2909 11.1513 10.4901C10.8568 10.68 10.7134 10.9008 10.7134 11.1602C10.7097 11.3087 10.7607 11.4535 10.8568 11.5669C10.9737 11.7014 11.1176 11.8096 11.2791 11.8847C11.4611 11.9761 11.6519 12.0488 11.8486 12.1015C12.0478 12.1559 12.3755 12.2373 12.8291 12.3379C13.4061 12.4581 13.9331 12.5975 14.3982 12.7406C14.8711 12.8917 15.2778 13.0727 15.6108 13.2868C15.9416 13.4956 16.2168 13.7815 16.413 14.1199C16.6029 14.4519 16.6999 14.8713 16.6999 15.3517C16.721 15.9138 16.5514 16.4664 16.2188 16.9199Z" fill="#032F57"/>
    </symbol>

    <symbol id="viber" width="26" height="26" fill="none" viewBox="0 0 26 26">
        <circle cx="13" cy="13" r="13" fill="#C9C101"/>
        <path d="M13.002 5H12.998C8.587 5 5 8.588 5 13C5 14.75 5.564 16.372 6.523 17.689L5.526 20.661L8.601 19.678C9.866 20.516 11.375 21 13.002 21C17.413 21 21 17.411 21 13C21 8.589 17.413 5 13.002 5ZM17.657 16.297C17.464 16.842 16.698 17.294 16.087 17.426C15.669 17.515 15.123 17.586 13.285 16.824C10.934 15.85 9.42 13.461 9.302 13.306C9.189 13.151 8.352 12.041 8.352 10.893C8.352 9.745 8.935 9.186 9.17 8.946C9.363 8.749 9.682 8.659 9.988 8.659C10.087 8.659 10.176 8.664 10.256 8.668C10.491 8.678 10.609 8.692 10.764 9.063C10.957 9.528 11.427 10.676 11.483 10.794C11.54 10.912 11.597 11.072 11.517 11.227C11.442 11.387 11.376 11.458 11.258 11.594C11.14 11.73 11.028 11.834 10.91 11.98C10.802 12.107 10.68 12.243 10.816 12.478C10.952 12.708 11.422 13.475 12.114 14.091C13.007 14.886 13.731 15.14 13.99 15.248C14.183 15.328 14.413 15.309 14.554 15.159C14.733 14.966 14.954 14.646 15.179 14.331C15.339 14.105 15.541 14.077 15.753 14.157C15.969 14.232 17.112 14.797 17.347 14.914C17.582 15.032 17.737 15.088 17.794 15.187C17.85 15.286 17.85 15.751 17.657 16.297Z" fill="#032F57"/>
    </symbol>

    <symbol id="tel-2" width="26" height="26" fill="none" viewBox="0 0 26 26">
        <circle cx="13" cy="13" r="13" fill="#C9C101"/>
        <g clip-path="url(#clip0)">
        <path d="M17.9758 11.8749C17.9926 9.90109 16.3115 8.09161 14.2283 7.84139C14.1869 7.83648 14.1417 7.829 14.094 7.82109C13.9908 7.804 13.8842 7.78644 13.7766 7.78644C13.3496 7.78644 13.2355 8.08635 13.2054 8.26522C13.1762 8.43913 13.2041 8.58518 13.2881 8.69948C13.4295 8.89174 13.6783 8.92587 13.8781 8.95322C13.9367 8.96131 13.992 8.96883 14.0382 8.97922C15.9099 9.39744 16.5401 10.055 16.8481 11.9107C16.8556 11.956 16.859 12.0119 16.8626 12.0712C16.8761 12.293 16.9041 12.7545 17.4002 12.7545H17.4003C17.4416 12.7545 17.486 12.751 17.5322 12.7439C17.9942 12.6737 17.9797 12.2518 17.9728 12.0491C17.9708 11.992 17.969 11.938 17.9738 11.9021C17.9751 11.8931 17.9757 11.884 17.9758 11.8749Z" fill="#032F57"/>
        <path d="M13.6555 7.11687C13.7109 7.12087 13.7634 7.1247 13.8071 7.13139C16.8805 7.60404 18.294 9.06022 18.6857 12.1577C18.6923 12.2103 18.6933 12.2746 18.6944 12.3426C18.6983 12.5846 18.7064 13.088 19.247 13.0984L19.2638 13.0986C19.4334 13.0986 19.5683 13.0475 19.6647 12.9465C19.833 12.7705 19.8213 12.509 19.8118 12.2988C19.8095 12.2472 19.8073 12.1987 19.8079 12.1561C19.847 8.98822 17.1048 6.11557 13.9397 6.00874C13.9266 6.0083 13.914 6.009 13.9014 6.01078C13.8952 6.0117 13.8837 6.01283 13.8639 6.01283C13.8324 6.01283 13.7935 6.01009 13.7524 6.0073C13.7026 6.00391 13.6461 6 13.5889 6C13.0849 6 12.989 6.35826 12.9768 6.57183C12.9485 7.06539 13.426 7.10013 13.6555 7.11687Z" fill="#032F57"/>
        <path d="M18.5373 16.161C18.472 16.1111 18.4044 16.0594 18.3411 16.0085C18.0056 15.7384 17.6486 15.4895 17.3033 15.2488C17.2317 15.1989 17.16 15.1489 17.0886 15.0988C16.6464 14.7882 16.2487 14.6372 15.8731 14.6372C15.3671 14.6372 14.926 14.9168 14.5619 15.468C14.4006 15.7124 14.2049 15.8312 13.9637 15.8312C13.8211 15.8312 13.6591 15.7906 13.4822 15.7102C12.0547 15.0629 11.0353 14.0704 10.4524 12.7602C10.1706 12.127 10.262 11.7131 10.7579 11.3762C11.0395 11.1851 11.5637 10.8293 11.5265 10.1479C11.4845 9.37412 9.77718 7.0459 9.05783 6.78147C8.75327 6.66947 8.43327 6.66843 8.10501 6.77886C7.27805 7.05686 6.68462 7.54508 6.3887 8.19064C6.10275 8.81442 6.11566 9.54686 6.42605 10.3088C7.32336 12.5116 8.58492 14.4322 10.1758 16.0172C11.7331 17.5686 13.647 18.8395 15.8645 19.7943C16.0644 19.8803 16.274 19.9272 16.4271 19.9615C16.4793 19.9732 16.5243 19.9832 16.5571 19.9922C16.5752 19.9971 16.5938 19.9998 16.6124 19.9999L16.63 20C16.63 20 16.63 20 16.6301 20C17.673 20 18.9253 19.047 19.3099 17.9605C19.6469 17.0091 19.0317 16.5388 18.5373 16.161Z" fill="#032F57"/>
        <path d="M14.1168 9.63321C13.9383 9.63773 13.5666 9.64695 13.4363 10.0254C13.3753 10.2023 13.3826 10.3559 13.458 10.4819C13.5687 10.6667 13.7808 10.7234 13.9737 10.7545C14.6733 10.8667 15.0326 11.2536 15.1045 11.9719C15.1379 12.3068 15.3634 12.5406 15.6529 12.5406H15.653C15.6744 12.5406 15.6963 12.5394 15.718 12.5367C16.0663 12.4953 16.2351 12.2394 16.2199 11.7763C16.2254 11.2929 15.9725 10.7442 15.5423 10.3071C15.1106 9.86869 14.5902 9.62177 14.1168 9.63321Z" fill="#032F57"/>
        </g>
        <defs>
        <clipPath id="clip0">
        <rect width="14" height="14" fill="white" transform="translate(6 6)"/>
        </clipPath>
        </defs>
    </symbol>

    <symbol id="telegram" width="26" height="26" fill="none" viewBox="0 0 26 26">
        <circle cx="13" cy="13" r="13" fill="#C9C101"/>
        <g clip-path="url(#clip0)">
        <path d="M10.278 15.1207L10.0133 18.8433C10.392 18.8433 10.556 18.6807 10.7527 18.4853L12.528 16.7887L16.2067 19.4827C16.8813 19.8587 17.3567 19.6607 17.5387 18.862L19.9533 7.54732L19.954 7.54666C20.168 6.54932 19.5933 6.15932 18.936 6.40399L4.74266 11.838C3.774 12.214 3.78866 12.754 4.578 12.9987L8.20666 14.1273L16.6353 8.85332C17.032 8.59066 17.3927 8.73599 17.096 8.99866L10.278 15.1207Z" fill="#032F57"/>
        </g>
        <defs>
        <clipPath id="clip0">
        <rect width="16" height="16" fill="white" transform="translate(4 5)"/>
        </clipPath>
        </defs>
    </symbol>


</svg>
