<svg style="display:none" width="137" height="49" viewBox="0 0 137 49" fill="none" xmlns="http://www.w3.org/2000/svg">
<path fill-rule="evenodd" clip-rule="evenodd" d="M78.6201 39.7627L76.0187 43.9319H81.1174L78.6201 39.7627ZM83.3778 32.1374L88.1357 39.7629L109.405 4.25409L100.775 4.25411L83.3778 32.1374Z" fill="#698FBB"/>
<path fill-rule="evenodd" clip-rule="evenodd" d="M71.0549 27.6217L61.2853 43.9319H51.6656L66.5425 20.0884L71.0549 27.6217ZM71.1783 12.6585L75.6881 19.8865L85.0516 4.25409L76.4222 4.25411L71.1783 12.6585Z" fill="#698FBB"/>
<path d="M39.6733 32.1815C39.6733 33.6027 39.4888 34.8855 39.1196 36.0298C38.7689 37.1557 38.2983 38.1524 37.7077 39.0198C37.117 39.8873 36.4249 40.6256 35.6312 41.2347C34.8376 41.8438 34.0163 42.3421 33.1672 42.7297C32.3182 43.1173 31.4507 43.4034 30.5648 43.5879C29.6973 43.7725 28.876 43.8648 28.1008 43.8648H0.332226V36.6666H28.1008C29.4851 36.6666 30.5556 36.2605 31.3123 35.4484C32.0875 34.6363 32.4751 33.5473 32.4751 32.1815C32.4751 31.5171 32.3736 30.908 32.1706 30.3543C31.9675 29.8006 31.6722 29.3207 31.2846 28.9146C30.9155 28.5086 30.4541 28.1948 29.9003 27.9733C29.3651 27.7518 28.7652 27.6411 28.1008 27.6411H11.5449C10.3821 27.6411 9.12699 27.4381 7.77963 27.032C6.43226 26.6075 5.17719 25.9338 4.0144 25.011C2.87006 24.0881 1.9103 22.8792 1.13511 21.3842C0.378369 19.8892 0 18.0619 0 15.9024C0 13.743 0.378369 11.925 1.13511 10.4484C1.9103 8.95338 2.87006 7.74445 4.0144 6.8216C5.17719 5.88029 6.43226 5.20661 7.77963 4.80055C9.12699 4.37604 10.3821 4.16379 11.5449 4.16379H36.0465V11.362H11.5449C10.179 11.362 9.10853 11.7773 8.33334 12.6079C7.5766 13.4384 7.19823 14.5366 7.19823 15.9024C7.19823 17.2867 7.5766 18.3849 8.33334 19.197C9.10853 19.9907 10.179 20.3875 11.5449 20.3875H28.1008H28.1562C28.9313 20.406 29.7527 20.5167 30.6202 20.7197C31.4876 20.9043 32.3459 21.1996 33.1949 21.6057C34.0624 22.0117 34.8837 22.5285 35.6589 23.156C36.4341 23.7651 37.117 24.5034 37.7077 25.3709C38.3167 26.2384 38.7966 27.235 39.1473 28.3609C39.498 29.4868 39.6733 30.7603 39.6733 32.1815Z" fill="#C9C101"/>
<path d="M97.3267 32.1815C97.3267 33.6027 97.5112 34.8855 97.8804 36.0298C98.2311 37.1557 98.7017 38.1524 99.2923 39.0198C99.883 39.8873 100.575 40.6256 101.369 41.2347C102.162 41.8438 102.984 42.3421 103.833 42.7297C104.682 43.1173 105.549 43.4034 106.435 43.5879C107.303 43.7725 108.124 43.8648 108.899 43.8648H136.668V36.6666H108.899C107.515 36.6666 106.444 36.2605 105.688 35.4484C104.913 34.6363 104.525 33.5473 104.525 32.1815C104.525 31.5171 104.626 30.908 104.829 30.3543C105.032 29.8006 105.328 29.3207 105.715 28.9146C106.085 28.5086 106.546 28.1948 107.1 27.9733C107.635 27.7518 108.235 27.6411 108.899 27.6411H125.455C126.618 27.6411 127.873 27.4381 129.22 27.032C130.568 26.6075 131.823 25.9338 132.986 25.011C134.13 24.0881 135.09 22.8792 135.865 21.3842C136.622 19.8892 137 18.0619 137 15.9024C137 13.743 136.622 11.925 135.865 10.4484C135.09 8.95338 134.13 7.74445 132.986 6.8216C131.823 5.88029 130.568 5.20661 129.22 4.80055C127.873 4.37604 126.618 4.16379 125.455 4.16379H100.953V11.362H125.455C126.821 11.362 127.891 11.7773 128.667 12.6079C129.423 13.4384 129.802 14.5366 129.802 15.9024C129.802 17.2867 129.423 18.3849 128.667 19.197C127.891 19.9907 126.821 20.3875 125.455 20.3875H108.899H108.844C108.069 20.406 107.247 20.5167 106.38 20.7197C105.512 20.9043 104.654 21.1996 103.805 21.6057C102.938 22.0117 102.116 22.5285 101.341 23.156C100.566 23.7651 99.883 24.5034 99.2923 25.3709C98.6833 26.2384 98.2034 27.235 97.8527 28.3609C97.502 29.4868 97.3267 30.7603 97.3267 32.1815Z" fill="#698FBB"/>
<path d="M85.6295 43.9319L60.8729 4.25412L52.2434 4.25409L76.0098 43.9319L85.6295 43.9319Z" fill="#C9C101"/>
<path d="M61.0352 43.9319L36.2786 4.25412L27.6491 4.25409L51.4154 43.9319L61.0352 43.9319Z" fill="#C9C101"/>
</svg>  

<svg style="display:none" width="26" height="26" viewBox="0 0 26 26" fill="none" xmlns="http://www.w3.org/2000/svg">
<circle cx="13" cy="13" r="13" fill="#C9C101"/>
<path d="M19.5112 15.0805C19.6206 14.5883 19.6752 14.0855 19.6739 13.5813C19.6739 9.71915 16.4967 6.58544 12.5754 6.58544C12.1691 6.58514 11.7636 6.61846 11.3628 6.68505C10.7075 6.27593 9.94994 6.06013 9.17738 6.06249C6.90696 6.06249 5.06252 7.87936 5.06252 10.1182C5.06011 10.8414 5.25528 11.5515 5.62698 12.1719C5.53192 12.6346 5.48386 13.1057 5.48354 13.578C5.48354 17.4442 8.66074 20.5739 12.578 20.5739C13.0133 20.575 13.4478 20.5361 13.876 20.4577C14.4761 20.7737 15.1444 20.9384 15.8227 20.9375C18.0971 20.9375 19.9375 19.1206 19.9375 16.8817C19.9413 16.2559 19.7951 15.6382 19.5112 15.0805ZM16.2188 16.9199C15.8894 17.3768 15.405 17.741 14.7774 17.9967C14.1499 18.2524 13.4085 18.3808 12.5561 18.3808C11.5371 18.3808 10.6848 18.2025 10.0144 17.8539C9.54972 17.6093 9.14893 17.2591 8.84436 16.8313C8.54188 16.4053 8.3908 15.9793 8.3908 15.5695C8.3908 15.3139 8.49041 15.0931 8.68531 14.9071C8.87922 14.7288 9.1309 14.6359 9.42541 14.6359C9.66946 14.6359 9.87863 14.7056 10.0493 14.849C10.212 14.9845 10.3514 15.186 10.4637 15.4493C10.5725 15.7015 10.7098 15.9404 10.8731 16.1612C11.013 16.3432 11.2106 16.4942 11.4661 16.6144C11.7257 16.7346 12.0704 16.7964 12.4954 16.7964C13.0804 16.7964 13.5609 16.6725 13.9211 16.4285C14.2777 16.1921 14.4484 15.9056 14.4484 15.5569C14.4484 15.282 14.3591 15.0649 14.1731 14.8945C13.9796 14.7162 13.7275 14.5768 13.4138 14.4838C13.092 14.3842 12.6544 14.2786 12.1119 14.1664C11.3758 14.0113 10.7505 13.8254 10.2525 13.6162C9.74516 13.403 9.33444 13.1049 9.03196 12.737C8.72582 12.3611 8.57475 11.8886 8.57475 11.3345C8.56955 10.8223 8.73901 10.3236 9.0552 9.92069C9.37295 9.51395 9.83414 9.1962 10.4348 8.97938C11.0238 8.76257 11.7251 8.65399 12.5153 8.65399C13.1508 8.65399 13.705 8.7277 14.1698 8.86716C14.6347 9.00661 15.0301 9.20417 15.3439 9.44423C15.6576 9.68429 15.8864 9.93995 16.0335 10.2079C16.1806 10.4758 16.2546 10.7465 16.2546 11.0048C16.2546 11.2525 16.1577 11.4812 15.9638 11.6788C15.8697 11.7767 15.7565 11.854 15.6311 11.906C15.5057 11.958 15.371 11.9835 15.2353 11.9809C14.972 11.9809 14.7665 11.9189 14.6234 11.795C14.4905 11.6788 14.3521 11.5005 14.201 11.2408C14.0227 10.9118 13.8096 10.6482 13.5655 10.4622C13.3251 10.2843 12.93 10.1913 12.3798 10.1913C11.8722 10.1913 11.4578 10.2909 11.1513 10.4901C10.8568 10.68 10.7134 10.9008 10.7134 11.1602C10.7097 11.3087 10.7607 11.4535 10.8568 11.5669C10.9737 11.7014 11.1176 11.8096 11.2791 11.8847C11.4611 11.9761 11.6519 12.0488 11.8486 12.1015C12.0478 12.1559 12.3755 12.2373 12.8291 12.3379C13.4061 12.4581 13.9331 12.5975 14.3982 12.7406C14.8711 12.8917 15.2778 13.0727 15.6108 13.2868C15.9416 13.4956 16.2168 13.7815 16.413 14.1199C16.6029 14.4519 16.6999 14.8713 16.6999 15.3517C16.721 15.9138 16.5514 16.4664 16.2188 16.9199Z" fill="#032F57"/>
</svg>

<svg style="display:none" width="26" height="26" viewBox="0 0 26 26" fill="none" xmlns="http://www.w3.org/2000/svg">
<circle cx="13" cy="13" r="13" fill="#C9C101"/>
<path d="M13.002 5H12.998C8.587 5 5 8.588 5 13C5 14.75 5.564 16.372 6.523 17.689L5.526 20.661L8.601 19.678C9.866 20.516 11.375 21 13.002 21C17.413 21 21 17.411 21 13C21 8.589 17.413 5 13.002 5ZM17.657 16.297C17.464 16.842 16.698 17.294 16.087 17.426C15.669 17.515 15.123 17.586 13.285 16.824C10.934 15.85 9.42 13.461 9.302 13.306C9.189 13.151 8.352 12.041 8.352 10.893C8.352 9.745 8.935 9.186 9.17 8.946C9.363 8.749 9.682 8.659 9.988 8.659C10.087 8.659 10.176 8.664 10.256 8.668C10.491 8.678 10.609 8.692 10.764 9.063C10.957 9.528 11.427 10.676 11.483 10.794C11.54 10.912 11.597 11.072 11.517 11.227C11.442 11.387 11.376 11.458 11.258 11.594C11.14 11.73 11.028 11.834 10.91 11.98C10.802 12.107 10.68 12.243 10.816 12.478C10.952 12.708 11.422 13.475 12.114 14.091C13.007 14.886 13.731 15.14 13.99 15.248C14.183 15.328 14.413 15.309 14.554 15.159C14.733 14.966 14.954 14.646 15.179 14.331C15.339 14.105 15.541 14.077 15.753 14.157C15.969 14.232 17.112 14.797 17.347 14.914C17.582 15.032 17.737 15.088 17.794 15.187C17.85 15.286 17.85 15.751 17.657 16.297Z" fill="#032F57"/>
</svg>

<svg style="display:none" width="26" height="26" viewBox="0 0 26 26" fill="none" xmlns="http://www.w3.org/2000/svg">
<circle cx="13" cy="13" r="13" fill="#C9C101"/>
<g clip-path="url(#clip0)">
<path d="M17.9758 11.8749C17.9926 9.90109 16.3115 8.09161 14.2283 7.84139C14.1869 7.83648 14.1417 7.829 14.094 7.82109C13.9908 7.804 13.8842 7.78644 13.7766 7.78644C13.3496 7.78644 13.2355 8.08635 13.2054 8.26522C13.1762 8.43913 13.2041 8.58518 13.2881 8.69948C13.4295 8.89174 13.6783 8.92587 13.8781 8.95322C13.9367 8.96131 13.992 8.96883 14.0382 8.97922C15.9099 9.39744 16.5401 10.055 16.8481 11.9107C16.8556 11.956 16.859 12.0119 16.8626 12.0712C16.8761 12.293 16.9041 12.7545 17.4002 12.7545H17.4003C17.4416 12.7545 17.486 12.751 17.5322 12.7439C17.9942 12.6737 17.9797 12.2518 17.9728 12.0491C17.9708 11.992 17.969 11.938 17.9738 11.9021C17.9751 11.8931 17.9757 11.884 17.9758 11.8749Z" fill="#032F57"/>
<path d="M13.6555 7.11687C13.7109 7.12087 13.7634 7.1247 13.8071 7.13139C16.8805 7.60404 18.294 9.06022 18.6857 12.1577C18.6923 12.2103 18.6933 12.2746 18.6944 12.3426C18.6983 12.5846 18.7064 13.088 19.247 13.0984L19.2638 13.0986C19.4334 13.0986 19.5683 13.0475 19.6647 12.9465C19.833 12.7705 19.8213 12.509 19.8118 12.2988C19.8095 12.2472 19.8073 12.1987 19.8079 12.1561C19.847 8.98822 17.1048 6.11557 13.9397 6.00874C13.9266 6.0083 13.914 6.009 13.9014 6.01078C13.8952 6.0117 13.8837 6.01283 13.8639 6.01283C13.8324 6.01283 13.7935 6.01009 13.7524 6.0073C13.7026 6.00391 13.6461 6 13.5889 6C13.0849 6 12.989 6.35826 12.9768 6.57183C12.9485 7.06539 13.426 7.10013 13.6555 7.11687Z" fill="#032F57"/>
<path d="M18.5373 16.161C18.472 16.1111 18.4044 16.0594 18.3411 16.0085C18.0056 15.7384 17.6486 15.4895 17.3033 15.2488C17.2317 15.1989 17.16 15.1489 17.0886 15.0988C16.6464 14.7882 16.2487 14.6372 15.8731 14.6372C15.3671 14.6372 14.926 14.9168 14.5619 15.468C14.4006 15.7124 14.2049 15.8312 13.9637 15.8312C13.8211 15.8312 13.6591 15.7906 13.4822 15.7102C12.0547 15.0629 11.0353 14.0704 10.4524 12.7602C10.1706 12.127 10.262 11.7131 10.7579 11.3762C11.0395 11.1851 11.5637 10.8293 11.5265 10.1479C11.4845 9.37412 9.77718 7.0459 9.05783 6.78147C8.75327 6.66947 8.43327 6.66843 8.10501 6.77886C7.27805 7.05686 6.68462 7.54508 6.3887 8.19064C6.10275 8.81442 6.11566 9.54686 6.42605 10.3088C7.32336 12.5116 8.58492 14.4322 10.1758 16.0172C11.7331 17.5686 13.647 18.8395 15.8645 19.7943C16.0644 19.8803 16.274 19.9272 16.4271 19.9615C16.4793 19.9732 16.5243 19.9832 16.5571 19.9922C16.5752 19.9971 16.5938 19.9998 16.6124 19.9999L16.63 20C16.63 20 16.63 20 16.6301 20C17.673 20 18.9253 19.047 19.3099 17.9605C19.6469 17.0091 19.0317 16.5388 18.5373 16.161Z" fill="#032F57"/>
<path d="M14.1168 9.63321C13.9383 9.63773 13.5666 9.64695 13.4363 10.0254C13.3753 10.2023 13.3826 10.3559 13.458 10.4819C13.5687 10.6667 13.7808 10.7234 13.9737 10.7545C14.6733 10.8667 15.0326 11.2536 15.1045 11.9719C15.1379 12.3068 15.3634 12.5406 15.6529 12.5406H15.653C15.6744 12.5406 15.6963 12.5394 15.718 12.5367C16.0663 12.4953 16.2351 12.2394 16.2199 11.7763C16.2254 11.2929 15.9725 10.7442 15.5423 10.3071C15.1106 9.86869 14.5902 9.62177 14.1168 9.63321Z" fill="#032F57"/>
</g>
<defs>
<clipPath id="clip0">
<rect width="14" height="14" fill="white" transform="translate(6 6)"/>
</clipPath>
</defs>
</svg>

<svg style="display:none" width="26" height="26" viewBox="0 0 26 26" fill="none" xmlns="http://www.w3.org/2000/svg">
<circle cx="13" cy="13" r="13" fill="#C9C101"/>
<g clip-path="url(#clip0)">
<path d="M10.278 15.1207L10.0133 18.8433C10.392 18.8433 10.556 18.6807 10.7527 18.4853L12.528 16.7887L16.2067 19.4827C16.8813 19.8587 17.3567 19.6607 17.5387 18.862L19.9533 7.54732L19.954 7.54666C20.168 6.54932 19.5933 6.15932 18.936 6.40399L4.74266 11.838C3.774 12.214 3.78866 12.754 4.578 12.9987L8.20666 14.1273L16.6353 8.85332C17.032 8.59066 17.3927 8.73599 17.096 8.99866L10.278 15.1207Z" fill="#032F57"/>
</g>
<defs>
<clipPath id="clip0">
<rect width="16" height="16" fill="white" transform="translate(4 5)"/>
</clipPath>
</defs>
</svg>


