<svg display="none" xmlns="http://www.w3.org/2000/svg">
    <symbol id="documnet">
        <g>
            <path d="M4.38118 10.0972V18.9849C4.38118 19.5659 4.61197 20.1231 5.02278 20.5339C5.43359 20.9447 5.99078 21.1755 6.57175 21.1755H16.7944C17.3754 21.1755 17.9326 20.9447 18.3434 20.5339C18.7542 20.1231 18.985 19.5659 18.985 18.9849V4.38114C18.985 3.80016 18.7542 3.24298 18.3434 2.83217C17.9326 2.42136 17.3754 2.19057 16.7944 2.19057H12.2878C11.9006 2.19063 11.5293 2.34444 11.2555 2.61818L4.8088 9.06485C4.53505 9.33866 4.38124 9.70998 4.38118 10.0972Z" stroke="#C9C101" stroke-width="1.46038" stroke-linejoin="round"/>
            <path d="M15.3341 16.7944H8.0322M11.6832 2.55566V8.03209C11.6832 8.41941 11.5293 8.79086 11.2554 9.06474C10.9815 9.33861 10.6101 9.49247 10.2228 9.49247H4.74635L11.6832 2.55566ZM15.3341 13.1434H8.0322H15.3341Z" stroke="#C9C101" stroke-width="1.46038" stroke-linecap="round" stroke-linejoin="round"/>
        </g>
    </symbol>

    <symbol id="mail" width="19" height="19"  fill="none"  viewBox="0 0 19 19">
        <path d="M15.6959 2.9847H3.25762C2.70799 2.98528 2.18105 3.20388 1.7924 3.59253C1.40376 3.98117 1.18516 4.50812 1.18457 5.05775V13.9423C1.18516 14.4919 1.40376 15.0188 1.7924 15.4075C2.18105 15.7961 2.70799 16.0147 3.25762 16.0153H15.6959C16.2456 16.0147 16.7725 15.7961 17.1611 15.4075C17.5498 15.0188 17.7684 14.4919 17.769 13.9423V5.05775C17.7684 4.50812 17.5498 3.98117 17.1611 3.59253C16.7725 3.20388 16.2456 2.98528 15.6959 2.9847ZM15.171 6.41374L9.8403 10.5598C9.73635 10.6407 9.60844 10.6845 9.47678 10.6845C9.34511 10.6845 9.2172 10.6407 9.11325 10.5598L3.78255 6.41374C3.71992 6.36645 3.66731 6.30717 3.62779 6.23937C3.58826 6.17157 3.5626 6.09658 3.55231 6.01878C3.54201 5.94097 3.54728 5.8619 3.56781 5.78615C3.58834 5.71039 3.62372 5.63948 3.6719 5.57752C3.72007 5.51556 3.78008 5.46379 3.84843 5.42523C3.91679 5.38666 3.99212 5.36206 4.07007 5.35286C4.14801 5.34366 4.227 5.35005 4.30246 5.37164C4.37791 5.39323 4.44832 5.42961 4.5096 5.47865L9.47678 9.34193L14.444 5.47865C14.5682 5.38485 14.7243 5.34371 14.8786 5.36413C15.0329 5.38455 15.173 5.46488 15.2685 5.58775C15.364 5.71063 15.4074 5.86617 15.3891 6.02074C15.3709 6.17531 15.2925 6.31649 15.171 6.41374Z" fill="white"/>
    </symbol>

    <symbol id="time" width="20" height="20"  fill="none" viewBox="0 0 20 20">
        <path d="M10 1.875C5.51289 1.875 1.875 5.51289 1.875 10C1.875 14.4801 5.52031 18.125 10 18.125C14.4867 18.125 18.125 14.4867 18.125 10C18.125 5.51992 14.4801 1.875 10 1.875ZM14.2188 11.25H9.53125C9.48981 11.25 9.45007 11.2335 9.42076 11.2042C9.39146 11.1749 9.375 11.1352 9.375 11.0938V4.53125C9.375 4.48981 9.39146 4.45007 9.42076 4.42076C9.45007 4.39146 9.48981 4.375 9.53125 4.375H10.4688C10.5102 4.375 10.5499 4.39146 10.5792 4.42076C10.6085 4.45007 10.625 4.48981 10.625 4.53125V10H14.2188C14.2602 10 14.2999 10.0165 14.3292 10.0458C14.3585 10.0751 14.375 10.1148 14.375 10.1562V11.0938C14.375 11.1352 14.3585 11.1749 14.3292 11.2042C14.2999 11.2335 14.2602 11.25 14.2188 11.25Z" fill="white"/>
    </symbol>

    <svg id="tel" width="17" height="17"  fill="none" viewBox="0 0 17 17">
        <path d="M15.182 11.7331C15.0166 11.5569 14.4324 11.0358 13.3584 10.3463C12.2765 9.65083 11.4786 9.21718 11.2497 9.11606C11.2296 9.10711 11.2074 9.10383 11.1855 9.10657C11.1636 9.1093 11.1428 9.11796 11.1255 9.13159C10.7568 9.4191 10.1362 9.94721 10.1029 9.97574C9.88795 10.1599 9.88795 10.1599 9.71202 10.1025C9.40263 10.0011 8.44151 9.49074 7.60402 8.65135C6.76652 7.81195 6.22986 6.82706 6.12842 6.51799C6.07041 6.34174 6.07041 6.34174 6.25522 6.12682C6.28375 6.09354 6.81217 5.47287 7.09968 5.10452C7.11332 5.08717 7.12197 5.06644 7.12471 5.04455C7.12744 5.02265 7.12416 5.00043 7.11522 4.98026C7.0141 4.75107 6.58045 3.95352 5.88497 2.87163C5.19456 1.79797 4.67406 1.21376 4.49781 1.04829C4.48164 1.03302 4.46165 1.02241 4.43994 1.01755C4.41824 1.0127 4.39563 1.01379 4.3745 1.02071C3.75842 1.23242 3.16399 1.50257 2.59934 1.82745C2.05425 2.14433 1.53819 2.5087 1.05717 2.91632C1.04038 2.9306 1.02779 2.94917 1.02076 2.97006C1.01372 2.99094 1.0125 3.01335 1.01723 3.03488C1.08348 3.34363 1.40016 4.63252 2.38284 6.41782C3.38548 8.23989 4.08033 9.17343 5.55276 10.6408C7.02519 12.1081 7.98821 12.8448 9.81219 13.8475C11.5975 14.8302 12.887 15.1472 13.1951 15.2128C13.2167 15.2175 13.2391 15.2162 13.2601 15.2092C13.281 15.2022 13.2996 15.1896 13.314 15.1728C13.7216 14.6918 14.0858 14.1758 14.4026 13.6307C14.7274 13.066 14.9975 12.4716 15.2093 11.8555C15.2161 11.8345 15.2171 11.8121 15.2123 11.7906C15.2075 11.7691 15.1971 11.7493 15.182 11.7331Z" fill="#C9C101"/>
    </svg>


    <svg id="arrow" width="8" height="5"  fill="none" viewBox="0 0 8 5">
        <g>
            <path d="M0.296892 0.954533L3.57298 4.77766C3.62579 4.83925 3.6913 4.88869 3.76501 4.92258C3.83872 4.95648 3.91889 4.97403 4.00002 4.97403C4.08115 4.97403 4.16132 4.95648 4.23503 4.92258C4.30873 4.88869 4.37424 4.83925 4.42705 4.77766L7.70314 0.954533C8.0158 0.589612 7.75658 0.0259399 7.27611 0.0259399H0.722985C0.242517 0.0259399 -0.0167021 0.589612 0.296892 0.954533Z" fill="white"/>
        </g>
    </svg>
        


</svg>
