<svg display="none" xmlns="http://www.w3.org/2000/svg">
    <symbol id="documnet">
        <g>
            <path d="M4.38118 10.0972V18.9849C4.38118 19.5659 4.61197 20.1231 5.02278 20.5339C5.43359 20.9447 5.99078 21.1755 6.57175 21.1755H16.7944C17.3754 21.1755 17.9326 20.9447 18.3434 20.5339C18.7542 20.1231 18.985 19.5659 18.985 18.9849V4.38114C18.985 3.80016 18.7542 3.24298 18.3434 2.83217C17.9326 2.42136 17.3754 2.19057 16.7944 2.19057H12.2878C11.9006 2.19063 11.5293 2.34444 11.2555 2.61818L4.8088 9.06485C4.53505 9.33866 4.38124 9.70998 4.38118 10.0972Z" stroke="#C9C101" stroke-width="1.46038" stroke-linejoin="round"/>
            <path d="M15.3341 16.7944H8.0322M11.6832 2.55566V8.03209C11.6832 8.41941 11.5293 8.79086 11.2554 9.06474C10.9815 9.33861 10.6101 9.49247 10.2228 9.49247H4.74635L11.6832 2.55566ZM15.3341 13.1434H8.0322H15.3341Z" stroke="#C9C101" stroke-width="1.46038" stroke-linecap="round" stroke-linejoin="round"/>
        </g>
    </symbol>

    <symbol id="mail" width="19" height="19"  fill="none"  viewBox="0 0 19 19">
        <path d="M15.6959 2.9847H3.25762C2.70799 2.98528 2.18105 3.20388 1.7924 3.59253C1.40376 3.98117 1.18516 4.50812 1.18457 5.05775V13.9423C1.18516 14.4919 1.40376 15.0188 1.7924 15.4075C2.18105 15.7961 2.70799 16.0147 3.25762 16.0153H15.6959C16.2456 16.0147 16.7725 15.7961 17.1611 15.4075C17.5498 15.0188 17.7684 14.4919 17.769 13.9423V5.05775C17.7684 4.50812 17.5498 3.98117 17.1611 3.59253C16.7725 3.20388 16.2456 2.98528 15.6959 2.9847ZM15.171 6.41374L9.8403 10.5598C9.73635 10.6407 9.60844 10.6845 9.47678 10.6845C9.34511 10.6845 9.2172 10.6407 9.11325 10.5598L3.78255 6.41374C3.71992 6.36645 3.66731 6.30717 3.62779 6.23937C3.58826 6.17157 3.5626 6.09658 3.55231 6.01878C3.54201 5.94097 3.54728 5.8619 3.56781 5.78615C3.58834 5.71039 3.62372 5.63948 3.6719 5.57752C3.72007 5.51556 3.78008 5.46379 3.84843 5.42523C3.91679 5.38666 3.99212 5.36206 4.07007 5.35286C4.14801 5.34366 4.227 5.35005 4.30246 5.37164C4.37791 5.39323 4.44832 5.42961 4.5096 5.47865L9.47678 9.34193L14.444 5.47865C14.5682 5.38485 14.7243 5.34371 14.8786 5.36413C15.0329 5.38455 15.173 5.46488 15.2685 5.58775C15.364 5.71063 15.4074 5.86617 15.3891 6.02074C15.3709 6.17531 15.2925 6.31649 15.171 6.41374Z" fill="white"/>
    </symbol>

    <symbol id="time" width="20" height="20"  fill="none" viewBox="0 0 20 20">
        <path d="M10 1.875C5.51289 1.875 1.875 5.51289 1.875 10C1.875 14.4801 5.52031 18.125 10 18.125C14.4867 18.125 18.125 14.4867 18.125 10C18.125 5.51992 14.4801 1.875 10 1.875ZM14.2188 11.25H9.53125C9.48981 11.25 9.45007 11.2335 9.42076 11.2042C9.39146 11.1749 9.375 11.1352 9.375 11.0938V4.53125C9.375 4.48981 9.39146 4.45007 9.42076 4.42076C9.45007 4.39146 9.48981 4.375 9.53125 4.375H10.4688C10.5102 4.375 10.5499 4.39146 10.5792 4.42076C10.6085 4.45007 10.625 4.48981 10.625 4.53125V10H14.2188C14.2602 10 14.2999 10.0165 14.3292 10.0458C14.3585 10.0751 14.375 10.1148 14.375 10.1562V11.0938C14.375 11.1352 14.3585 11.1749 14.3292 11.2042C14.2999 11.2335 14.2602 11.25 14.2188 11.25Z" fill="white"/>
    </symbol>

    <symbol id="tel" width="17" height="17"  fill="none" viewBox="0 0 17 17">
        <path d="M15.182 11.7331C15.0166 11.5569 14.4324 11.0358 13.3584 10.3463C12.2765 9.65083 11.4786 9.21718 11.2497 9.11606C11.2296 9.10711 11.2074 9.10383 11.1855 9.10657C11.1636 9.1093 11.1428 9.11796 11.1255 9.13159C10.7568 9.4191 10.1362 9.94721 10.1029 9.97574C9.88795 10.1599 9.88795 10.1599 9.71202 10.1025C9.40263 10.0011 8.44151 9.49074 7.60402 8.65135C6.76652 7.81195 6.22986 6.82706 6.12842 6.51799C6.07041 6.34174 6.07041 6.34174 6.25522 6.12682C6.28375 6.09354 6.81217 5.47287 7.09968 5.10452C7.11332 5.08717 7.12197 5.06644 7.12471 5.04455C7.12744 5.02265 7.12416 5.00043 7.11522 4.98026C7.0141 4.75107 6.58045 3.95352 5.88497 2.87163C5.19456 1.79797 4.67406 1.21376 4.49781 1.04829C4.48164 1.03302 4.46165 1.02241 4.43994 1.01755C4.41824 1.0127 4.39563 1.01379 4.3745 1.02071C3.75842 1.23242 3.16399 1.50257 2.59934 1.82745C2.05425 2.14433 1.53819 2.5087 1.05717 2.91632C1.04038 2.9306 1.02779 2.94917 1.02076 2.97006C1.01372 2.99094 1.0125 3.01335 1.01723 3.03488C1.08348 3.34363 1.40016 4.63252 2.38284 6.41782C3.38548 8.23989 4.08033 9.17343 5.55276 10.6408C7.02519 12.1081 7.98821 12.8448 9.81219 13.8475C11.5975 14.8302 12.887 15.1472 13.1951 15.2128C13.2167 15.2175 13.2391 15.2162 13.2601 15.2092C13.281 15.2022 13.2996 15.1896 13.314 15.1728C13.7216 14.6918 14.0858 14.1758 14.4026 13.6307C14.7274 13.066 14.9975 12.4716 15.2093 11.8555C15.2161 11.8345 15.2171 11.8121 15.2123 11.7906C15.2075 11.7691 15.1971 11.7493 15.182 11.7331Z" fill="#C9C101"/>
    </symbol>


    <symbol id="arrow" width="8" height="5"  fill="none" viewBox="0 0 8 5">
        <g>
            <path d="M0.296892 0.954533L3.57298 4.77766C3.62579 4.83925 3.6913 4.88869 3.76501 4.92258C3.83872 4.95648 3.91889 4.97403 4.00002 4.97403C4.08115 4.97403 4.16132 4.95648 4.23503 4.92258C4.30873 4.88869 4.37424 4.83925 4.42705 4.77766L7.70314 0.954533C8.0158 0.589612 7.75658 0.0259399 7.27611 0.0259399H0.722985C0.242517 0.0259399 -0.0167021 0.589612 0.296892 0.954533Z" fill="white"/>
        </g>
    </symbol>
        
    <symbol id="skype" width="26" height="26" fill="none"  viewBox="0 0 26 26">
        <circle cx="13" cy="13" r="13" fill="#C9C101"/>
        <path d="M19.5112 15.0805C19.6206 14.5883 19.6752 14.0855 19.6739 13.5813C19.6739 9.71915 16.4967 6.58544 12.5754 6.58544C12.1691 6.58514 11.7636 6.61846 11.3628 6.68505C10.7075 6.27593 9.94994 6.06013 9.17738 6.06249C6.90696 6.06249 5.06252 7.87936 5.06252 10.1182C5.06011 10.8414 5.25528 11.5515 5.62698 12.1719C5.53192 12.6346 5.48386 13.1057 5.48354 13.578C5.48354 17.4442 8.66074 20.5739 12.578 20.5739C13.0133 20.575 13.4478 20.5361 13.876 20.4577C14.4761 20.7737 15.1444 20.9384 15.8227 20.9375C18.0971 20.9375 19.9375 19.1206 19.9375 16.8817C19.9413 16.2559 19.7951 15.6382 19.5112 15.0805ZM16.2188 16.9199C15.8894 17.3768 15.405 17.741 14.7774 17.9967C14.1499 18.2524 13.4085 18.3808 12.5561 18.3808C11.5371 18.3808 10.6848 18.2025 10.0144 17.8539C9.54972 17.6093 9.14893 17.2591 8.84436 16.8313C8.54188 16.4053 8.3908 15.9793 8.3908 15.5695C8.3908 15.3139 8.49041 15.0931 8.68531 14.9071C8.87922 14.7288 9.1309 14.6359 9.42541 14.6359C9.66946 14.6359 9.87863 14.7056 10.0493 14.849C10.212 14.9845 10.3514 15.186 10.4637 15.4493C10.5725 15.7015 10.7098 15.9404 10.8731 16.1612C11.013 16.3432 11.2106 16.4942 11.4661 16.6144C11.7257 16.7346 12.0704 16.7964 12.4954 16.7964C13.0804 16.7964 13.5609 16.6725 13.9211 16.4285C14.2777 16.1921 14.4484 15.9056 14.4484 15.5569C14.4484 15.282 14.3591 15.0649 14.1731 14.8945C13.9796 14.7162 13.7275 14.5768 13.4138 14.4838C13.092 14.3842 12.6544 14.2786 12.1119 14.1664C11.3758 14.0113 10.7505 13.8254 10.2525 13.6162C9.74516 13.403 9.33444 13.1049 9.03196 12.737C8.72582 12.3611 8.57475 11.8886 8.57475 11.3345C8.56955 10.8223 8.73901 10.3236 9.0552 9.92069C9.37295 9.51395 9.83414 9.1962 10.4348 8.97938C11.0238 8.76257 11.7251 8.65399 12.5153 8.65399C13.1508 8.65399 13.705 8.7277 14.1698 8.86716C14.6347 9.00661 15.0301 9.20417 15.3439 9.44423C15.6576 9.68429 15.8864 9.93995 16.0335 10.2079C16.1806 10.4758 16.2546 10.7465 16.2546 11.0048C16.2546 11.2525 16.1577 11.4812 15.9638 11.6788C15.8697 11.7767 15.7565 11.854 15.6311 11.906C15.5057 11.958 15.371 11.9835 15.2353 11.9809C14.972 11.9809 14.7665 11.9189 14.6234 11.795C14.4905 11.6788 14.3521 11.5005 14.201 11.2408C14.0227 10.9118 13.8096 10.6482 13.5655 10.4622C13.3251 10.2843 12.93 10.1913 12.3798 10.1913C11.8722 10.1913 11.4578 10.2909 11.1513 10.4901C10.8568 10.68 10.7134 10.9008 10.7134 11.1602C10.7097 11.3087 10.7607 11.4535 10.8568 11.5669C10.9737 11.7014 11.1176 11.8096 11.2791 11.8847C11.4611 11.9761 11.6519 12.0488 11.8486 12.1015C12.0478 12.1559 12.3755 12.2373 12.8291 12.3379C13.4061 12.4581 13.9331 12.5975 14.3982 12.7406C14.8711 12.8917 15.2778 13.0727 15.6108 13.2868C15.9416 13.4956 16.2168 13.7815 16.413 14.1199C16.6029 14.4519 16.6999 14.8713 16.6999 15.3517C16.721 15.9138 16.5514 16.4664 16.2188 16.9199Z" fill="#032F57"/>
    </symbol>

    <symbol id="viber" width="26" height="26" fill="none" viewBox="0 0 26 26">
        <circle cx="13" cy="13" r="13" fill="#C9C101"/>
        <path d="M13.002 5H12.998C8.587 5 5 8.588 5 13C5 14.75 5.564 16.372 6.523 17.689L5.526 20.661L8.601 19.678C9.866 20.516 11.375 21 13.002 21C17.413 21 21 17.411 21 13C21 8.589 17.413 5 13.002 5ZM17.657 16.297C17.464 16.842 16.698 17.294 16.087 17.426C15.669 17.515 15.123 17.586 13.285 16.824C10.934 15.85 9.42 13.461 9.302 13.306C9.189 13.151 8.352 12.041 8.352 10.893C8.352 9.745 8.935 9.186 9.17 8.946C9.363 8.749 9.682 8.659 9.988 8.659C10.087 8.659 10.176 8.664 10.256 8.668C10.491 8.678 10.609 8.692 10.764 9.063C10.957 9.528 11.427 10.676 11.483 10.794C11.54 10.912 11.597 11.072 11.517 11.227C11.442 11.387 11.376 11.458 11.258 11.594C11.14 11.73 11.028 11.834 10.91 11.98C10.802 12.107 10.68 12.243 10.816 12.478C10.952 12.708 11.422 13.475 12.114 14.091C13.007 14.886 13.731 15.14 13.99 15.248C14.183 15.328 14.413 15.309 14.554 15.159C14.733 14.966 14.954 14.646 15.179 14.331C15.339 14.105 15.541 14.077 15.753 14.157C15.969 14.232 17.112 14.797 17.347 14.914C17.582 15.032 17.737 15.088 17.794 15.187C17.85 15.286 17.85 15.751 17.657 16.297Z" fill="#032F57"/>
    </symbol>

    <symbol id="tel-2" width="26" height="26" fill="none" viewBox="0 0 26 26">
        <circle cx="13" cy="13" r="13" fill="#C9C101"/>
        <g clip-path="url(#clip0)">
        <path d="M17.9758 11.8749C17.9926 9.90109 16.3115 8.09161 14.2283 7.84139C14.1869 7.83648 14.1417 7.829 14.094 7.82109C13.9908 7.804 13.8842 7.78644 13.7766 7.78644C13.3496 7.78644 13.2355 8.08635 13.2054 8.26522C13.1762 8.43913 13.2041 8.58518 13.2881 8.69948C13.4295 8.89174 13.6783 8.92587 13.8781 8.95322C13.9367 8.96131 13.992 8.96883 14.0382 8.97922C15.9099 9.39744 16.5401 10.055 16.8481 11.9107C16.8556 11.956 16.859 12.0119 16.8626 12.0712C16.8761 12.293 16.9041 12.7545 17.4002 12.7545H17.4003C17.4416 12.7545 17.486 12.751 17.5322 12.7439C17.9942 12.6737 17.9797 12.2518 17.9728 12.0491C17.9708 11.992 17.969 11.938 17.9738 11.9021C17.9751 11.8931 17.9757 11.884 17.9758 11.8749Z" fill="#032F57"/>
        <path d="M13.6555 7.11687C13.7109 7.12087 13.7634 7.1247 13.8071 7.13139C16.8805 7.60404 18.294 9.06022 18.6857 12.1577C18.6923 12.2103 18.6933 12.2746 18.6944 12.3426C18.6983 12.5846 18.7064 13.088 19.247 13.0984L19.2638 13.0986C19.4334 13.0986 19.5683 13.0475 19.6647 12.9465C19.833 12.7705 19.8213 12.509 19.8118 12.2988C19.8095 12.2472 19.8073 12.1987 19.8079 12.1561C19.847 8.98822 17.1048 6.11557 13.9397 6.00874C13.9266 6.0083 13.914 6.009 13.9014 6.01078C13.8952 6.0117 13.8837 6.01283 13.8639 6.01283C13.8324 6.01283 13.7935 6.01009 13.7524 6.0073C13.7026 6.00391 13.6461 6 13.5889 6C13.0849 6 12.989 6.35826 12.9768 6.57183C12.9485 7.06539 13.426 7.10013 13.6555 7.11687Z" fill="#032F57"/>
        <path d="M18.5373 16.161C18.472 16.1111 18.4044 16.0594 18.3411 16.0085C18.0056 15.7384 17.6486 15.4895 17.3033 15.2488C17.2317 15.1989 17.16 15.1489 17.0886 15.0988C16.6464 14.7882 16.2487 14.6372 15.8731 14.6372C15.3671 14.6372 14.926 14.9168 14.5619 15.468C14.4006 15.7124 14.2049 15.8312 13.9637 15.8312C13.8211 15.8312 13.6591 15.7906 13.4822 15.7102C12.0547 15.0629 11.0353 14.0704 10.4524 12.7602C10.1706 12.127 10.262 11.7131 10.7579 11.3762C11.0395 11.1851 11.5637 10.8293 11.5265 10.1479C11.4845 9.37412 9.77718 7.0459 9.05783 6.78147C8.75327 6.66947 8.43327 6.66843 8.10501 6.77886C7.27805 7.05686 6.68462 7.54508 6.3887 8.19064C6.10275 8.81442 6.11566 9.54686 6.42605 10.3088C7.32336 12.5116 8.58492 14.4322 10.1758 16.0172C11.7331 17.5686 13.647 18.8395 15.8645 19.7943C16.0644 19.8803 16.274 19.9272 16.4271 19.9615C16.4793 19.9732 16.5243 19.9832 16.5571 19.9922C16.5752 19.9971 16.5938 19.9998 16.6124 19.9999L16.63 20C16.63 20 16.63 20 16.6301 20C17.673 20 18.9253 19.047 19.3099 17.9605C19.6469 17.0091 19.0317 16.5388 18.5373 16.161Z" fill="#032F57"/>
        <path d="M14.1168 9.63321C13.9383 9.63773 13.5666 9.64695 13.4363 10.0254C13.3753 10.2023 13.3826 10.3559 13.458 10.4819C13.5687 10.6667 13.7808 10.7234 13.9737 10.7545C14.6733 10.8667 15.0326 11.2536 15.1045 11.9719C15.1379 12.3068 15.3634 12.5406 15.6529 12.5406H15.653C15.6744 12.5406 15.6963 12.5394 15.718 12.5367C16.0663 12.4953 16.2351 12.2394 16.2199 11.7763C16.2254 11.2929 15.9725 10.7442 15.5423 10.3071C15.1106 9.86869 14.5902 9.62177 14.1168 9.63321Z" fill="#032F57"/>
        </g>
        <defs>
        <clipPath id="clip0">
        <rect width="14" height="14" fill="white" transform="translate(6 6)"/>
        </clipPath>
        </defs>
    </symbol>

    <symbol id="telegram" width="26" height="26" fill="none" viewBox="0 0 26 26">
        <circle cx="13" cy="13" r="13" fill="#C9C101"/>
        <g clip-path="url(#clip0)">
        <path d="M10.278 15.1207L10.0133 18.8433C10.392 18.8433 10.556 18.6807 10.7527 18.4853L12.528 16.7887L16.2067 19.4827C16.8813 19.8587 17.3567 19.6607 17.5387 18.862L19.9533 7.54732L19.954 7.54666C20.168 6.54932 19.5933 6.15932 18.936 6.40399L4.74266 11.838C3.774 12.214 3.78866 12.754 4.578 12.9987L8.20666 14.1273L16.6353 8.85332C17.032 8.59066 17.3927 8.73599 17.096 8.99866L10.278 15.1207Z" fill="#032F57"/>
        </g>
        <defs>
        <clipPath id="clip0">
        <rect width="16" height="16" fill="white" transform="translate(4 5)"/>
        </clipPath>
        </defs>
    </symbol>


    <symbol id="problems__icon-1" width="31" height="31" fill="none" viewBox="0 0 31 31">
        <path d="M6.35742 9.14258C2.85194 9.14258 0 11.9945 0 15.5C0 17.3384 0.784687 18.9968 2.03643 20.1587C2.68622 19.0293 3.7484 18.2045 4.97502 17.8465C4.17247 17.3719 3.63281 16.498 3.63281 15.5C3.63281 13.9977 4.85507 12.7754 6.35742 12.7754C7.85977 12.7754 9.08203 13.9977 9.08203 15.5C9.08203 16.498 8.54238 17.3719 7.73983 17.8465C8.96645 18.2045 10.0286 19.0293 10.6784 20.1587C11.9302 18.9968 12.7148 17.3384 12.7148 15.5C12.7148 11.9945 9.8629 9.14258 6.35742 9.14258Z" fill="#032F57"/>
        <path d="M6.35738 19.4645C5.17206 19.4645 4.07937 20.1402 3.53723 21.1965C4.38755 21.6192 5.3451 21.8574 6.35738 21.8574C7.36967 21.8574 8.32715 21.6192 9.17754 21.1965C8.6354 20.1402 7.54265 19.4645 6.35738 19.4645Z" fill="#032F57"/>
        <path d="M6.35742 16.4082C6.85901 16.4082 7.26562 16.0016 7.26562 15.5C7.26562 14.9984 6.85901 14.5918 6.35742 14.5918C5.85584 14.5918 5.44922 14.9984 5.44922 15.5C5.44922 16.0016 5.85584 16.4082 6.35742 16.4082Z" fill="#032F57"/>
        <path d="M20.3216 11.0161C20.9714 9.88676 22.0336 9.06193 23.2602 8.70392C22.4576 8.22929 21.918 7.35542 21.918 6.35742C21.918 4.85507 23.1402 3.63281 24.6426 3.63281C26.1449 3.63281 27.3672 4.85507 27.3672 6.35742C27.3672 7.35542 26.8275 8.22929 26.025 8.70392C27.2517 9.06193 28.3138 9.88676 28.9636 11.0161C30.2153 9.85425 31 8.19593 31 6.35742C31 2.85194 28.1481 0 24.6426 0C21.1371 0 18.2852 2.85194 18.2852 6.35742C18.2852 8.19593 19.0698 9.85425 20.3216 11.0161Z" fill="#032F57"/>
        <path d="M21.8225 12.0539C22.6728 12.4766 23.6304 12.7148 24.6427 12.7148C25.6549 12.7148 26.6124 12.4766 27.4628 12.054C26.9207 10.9976 25.828 10.322 24.6427 10.322C23.4573 10.322 22.3646 10.9977 21.8225 12.0539Z" fill="#032F57"/>
        <path d="M24.6426 7.26562C25.1442 7.26562 25.5508 6.85901 25.5508 6.35742C25.5508 5.85584 25.1442 5.44922 24.6426 5.44922C24.141 5.44922 23.7344 5.85584 23.7344 6.35742C23.7344 6.85901 24.141 7.26562 24.6426 7.26562Z" fill="#032F57"/>
        <path d="M24.6426 18.2852C21.1371 18.2852 18.2852 21.1371 18.2852 24.6426C18.2852 26.481 19.0698 28.1394 20.3216 29.3012C20.9714 28.1719 22.0336 27.3471 23.2602 26.9891C22.4576 26.5144 21.918 25.6406 21.918 24.6426C21.918 23.1402 23.1402 21.918 24.6426 21.918C26.1449 21.918 27.3672 23.1402 27.3672 24.6426C27.3672 25.6406 26.8275 26.5144 26.025 26.9891C27.2517 27.3471 28.3138 28.1719 28.9636 29.3012C30.2153 28.1394 31 26.481 31 24.6426C31 21.137 28.1481 18.2852 24.6426 18.2852Z" fill="#032F57"/>
        <path d="M24.6427 28.6071C23.4574 28.6071 22.3646 29.2828 21.8225 30.3391C22.6728 30.7618 23.6304 31 24.6427 31C25.6549 31 26.6124 30.7618 27.4628 30.3391C26.9207 29.2828 25.8279 28.6071 24.6427 28.6071Z" fill="#032F57"/>
        <path d="M24.6426 25.5508C25.1442 25.5508 25.5508 25.1442 25.5508 24.6426C25.5508 24.141 25.1442 23.7344 24.6426 23.7344C24.141 23.7344 23.7344 24.141 23.7344 24.6426C23.7344 25.1442 24.141 25.5508 24.6426 25.5508Z" fill="#032F57"/>
        <path d="M12.9352 10.6536C13.294 11.1393 13.6002 11.6661 13.8457 12.2253L17.4123 10.1662C17.1279 9.62848 16.9017 9.05559 16.7422 8.45569L12.9352 10.6536Z" fill="#032F57"/>
        <path d="M12.9352 20.3465L16.7422 22.5444C16.9017 21.9445 17.1278 21.3716 17.4122 20.8339L13.8457 18.7748C13.6002 19.3341 13.294 19.8608 12.9352 20.3465Z" fill="#032F57"/>
    </symbol>
        

    <symbol id="problems__icon-2" width="27" height="25" fill="none" viewBox="0 0 27 25">
        <path d="M19.4287 4.63511L17.0403 0.543484C16.9267 0.348859 16.74 0.207109 16.5217 0.150859C16.3046 0.0968586 16.0717 0.128359 15.8782 0.244234L8.57697 4.62498L19.4287 4.63511Z" fill="#032F57"/>
        <path d="M3.375 5.75C2.75625 5.75 2.25 5.24375 2.25 4.625C2.25 4.00625 2.75625 3.5 3.375 3.5H7.16625L10.9237 1.25H3.375C1.71 1.25 0.32625 2.465 0.05625 4.0625C0.03375 4.1525 0 4.2425 0 4.34375V21.5C0 23.3562 1.51875 24.875 3.375 24.875H22.5C23.7375 24.875 24.75 23.8625 24.75 22.625V20.375H21.9375C19.1475 20.375 16.875 18.1025 16.875 15.3125C16.875 12.5225 19.1475 10.25 21.9375 10.25H24.75V8C24.75 6.7625 23.7375 5.75 22.5 5.75H3.375ZM21.375 3.5C21.375 2.36375 20.5312 1.41875 19.4288 1.2725L21.375 4.625V3.5Z" fill="#032F57"/>
        <path d="M26.1562 11.9375H21.9375C20.0767 11.9375 18.5625 13.4518 18.5625 15.3125C18.5625 17.1733 20.0767 18.6875 21.9375 18.6875H26.1562C26.622 18.6875 27 18.3095 27 17.8438V12.7813C27 12.3155 26.622 11.9375 26.1562 11.9375ZM21.9375 16.4375C21.3165 16.4375 20.8125 15.9335 20.8125 15.3125C20.8125 14.6915 21.3165 14.1875 21.9375 14.1875C22.5585 14.1875 23.0625 14.6915 23.0625 15.3125C23.0625 15.9335 22.5585 16.4375 21.9375 16.4375Z" fill="#032F57"/>
    </symbol>

    <symbol id="problems__icon-3" width="30" height="30" fill="none" viewBox="0 0 30 30">
        <path d="M23.1556 12.3633L24.3281 8.84766H16.2188L17.3913 12.3633H23.1556Z" fill="#032F57"/>
        <path d="M12.4955 18.9774C12.6551 19.2366 12.9384 19.3945 13.2422 19.3945H20.2734C25.6035 19.3945 29.9414 15.0575 29.9414 9.72656C29.9414 4.39564 25.6035 0 20.2734 0C14.9433 0 10.6055 4.39564 10.6055 9.72656C10.6055 12.2277 11.5805 14.6335 13.304 16.4265L12.456 18.1225C12.3204 18.3954 12.3341 18.7191 12.4955 18.9774ZM14.2876 7.45465C14.4524 7.22549 14.7168 7.08984 15 7.08984H16.2145L17.7294 4.06002C17.9474 3.62572 18.4761 3.45404 18.9087 3.66691C19.343 3.88406 19.5181 4.41193 19.3018 4.84623L18.18 7.08984H22.3668L21.245 4.84623C21.0287 4.41193 21.2038 3.88406 21.6381 3.66691C22.0741 3.45234 22.5994 3.62572 22.8174 4.06002L24.3323 7.08984H25.5469C25.8301 7.08984 26.0945 7.22543 26.2593 7.45465C26.4258 7.68381 26.4704 7.97906 26.3811 8.24689L24.6233 13.5203C24.5032 13.879 24.1667 14.1211 23.7891 14.1211H16.7578C16.3802 14.1211 16.0437 13.879 15.9236 13.5203L14.1657 8.24684C14.0764 7.97906 14.1211 7.68381 14.2876 7.45465Z" fill="#032F57"/>
        <path d="M20.8674 30C21.9935 30 22.9102 29.1322 22.9102 28.0653V24.839C22.9102 24.4553 22.6612 24.1163 22.2956 24.0013L17.1767 22.3842C16.9312 22.3061 16.66 22.3413 16.4437 22.4786L13.7263 24.1952L13.7246 24.1944C10.4819 22.9661 7.41926 20.6287 6.12146 17.5551L7.9033 15.0222C8.06637 14.7905 8.10756 14.4935 8.01316 14.2249L6.32918 9.43464C6.20561 9.08273 5.87256 8.84753 5.50008 8.84753H2.04105C0.914941 8.84765 0 9.71543 0 10.7823C0 21.451 9.615 30 20.8674 30Z" fill="#032F57"/>
    </symbol>
        
    <synbol id="problems__icon-4" width="30" height="30" fill="none" viewBox="0 0 30 30">
        <path d="M0 9.10431H10.6641V17.8934H0V9.10431Z" fill="#032F57"/>
        <path d="M12.4219 8.56097V18.4367L26.4844 25.4679V1.52972L12.4219 8.56097Z" fill="#032F57"/>
        <path d="M28.2422 10.3188V16.6788L30 15.7999V11.1977L28.2422 10.3188Z" fill="#032F57"/>
        <path d="M3.93689 19.6512L4.97523 28.4703L10.2014 27.7304L9.20323 19.6512H3.93689Z" fill="#032F57"/>
    </synbol>
        
    <symbol id="problems__icon-5" width="26" height="30" fill="none" viewBox="0 0 26 30">
        <path d="M20.0612 11.3226C19.6069 13.0547 18.5468 13.4362 17.9812 13.5128C17.6327 14.2075 16.8668 15.6272 16.1007 16.3405C15.7945 16.6255 15.3965 16.8661 14.9179 17.0555C14.3069 17.2973 13.6616 17.4199 13.0001 17.4199C12.3386 17.4199 11.6933 17.2973 11.0822 17.0555C10.6038 16.8662 10.2057 16.6256 9.89944 16.3405C9.13315 15.6273 8.36727 14.2075 8.01884 13.5128C7.45334 13.4362 6.39323 13.0548 5.93894 11.3226C5.69597 10.3962 5.75818 9.64114 6.12397 9.07814C6.28564 8.82932 6.48161 8.65984 6.6641 8.54509C6.66464 8.36017 6.67238 8.12866 6.69387 7.86533C6.36533 7.41003 5.91865 6.42767 6.47187 4.83757C7.05659 3.15655 8.37862 2.89695 9.01674 2.87445C9.23248 2.47453 9.64005 1.90674 10.3802 1.38474C11.2017 0.804961 12.2745 0.485718 13.4008 0.485718C14.7868 0.485718 16.1815 0.972172 17.4339 1.89249C19.4646 3.3846 19.2906 6.69446 19.2408 7.2954C19.3145 7.79916 19.335 8.23609 19.3359 8.54495C19.5184 8.65971 19.7144 8.82918 19.876 9.078C20.2418 9.64114 20.304 10.3961 20.0612 11.3226ZM26 24.2213V28.9196C26 29.2871 25.7011 29.5852 25.3325 29.5852H0.667491C0.298903 29.5852 0 29.2871 0 28.9196V24.2213C0 22.2965 1.15796 20.5909 2.95005 19.876L8.78592 17.5481C8.95387 17.4812 9.14183 17.4848 9.30697 17.5589C9.47197 17.6326 9.6 17.7701 9.66141 17.9397L11.1286 21.9846L11.419 21.1517L10.9569 20.0251C10.8728 19.8198 10.8965 19.5861 11.0206 19.402C11.1446 19.2179 11.3523 19.1074 11.5747 19.1074H14.4254C14.6478 19.1074 14.8557 19.2179 14.9796 19.402C15.1036 19.5861 15.1274 19.8198 15.0433 20.0251L14.5811 21.1517L14.8716 21.9846L16.3387 17.9397C16.4001 17.7701 16.5282 17.6326 16.6932 17.5589C16.8583 17.485 17.0464 17.4814 17.2142 17.5481L23.0501 19.876C24.8422 20.5909 26 22.2965 26 24.2213ZM22.4468 24.7321C22.4468 24.3645 22.1479 24.0665 21.7793 24.0665H17.2978C16.9292 24.0665 16.6303 24.3645 16.6303 24.7321V26.8076C16.6303 27.1752 16.9292 27.4732 17.2978 27.4732H21.7793C22.1479 27.4732 22.4468 27.1752 22.4468 26.8076V24.7321Z" fill="#032F57"/>
    </symbol>
        
    <symbol id="problems__icon-6" width="31" height="31" fill="none" viewBox="0 0 31 31">
        <path d="M30.0261 5.17493C30.0247 3.80321 28.9132 2.69195 27.5415 2.69031H3.44824C2.07652 2.69195 0.965035 3.80321 0.963623 5.17493V7.63931H30.0261V5.17493ZM3.70988 6.81487C2.8045 6.81487 2.06994 6.08054 2.06994 5.17493C2.06994 4.26908 2.8045 3.53475 3.71035 3.53475C4.61573 3.53475 5.35029 4.26908 5.35029 5.17493C5.34911 6.08031 4.61549 6.81416 3.70988 6.81487ZM7.50739 6.81487C6.60154 6.81487 5.86745 6.08054 5.86745 5.17469C5.86792 4.26884 6.60225 3.53475 7.50786 3.53475C8.41371 3.53498 9.1478 4.26908 9.1478 5.17493C9.14686 6.08054 8.41277 6.81416 7.50739 6.81487ZM11.3047 6.81487C10.3988 6.81487 9.66449 6.08078 9.66449 5.17493C9.66449 4.26908 10.3988 3.53475 11.3047 3.53475C12.2105 3.53475 12.9446 4.26908 12.9446 5.17493C12.9439 6.08031 12.21 6.81416 11.3047 6.81487Z" fill="#032F57"/>
        <path d="M7.50761 4.58911C7.18385 4.58911 6.92151 4.85145 6.92151 5.17497C6.92151 5.49849 7.18385 5.76083 7.50761 5.76083C7.83136 5.76083 8.09347 5.49849 8.09347 5.17497C8.09323 4.85145 7.83136 4.58958 7.50761 4.58911Z" fill="#032F57"/>
        <path d="M3.44824 28.0866H27.5415C28.9132 28.0852 30.0247 26.9735 30.0261 25.602V8.69342H0.963623V25.602C0.965035 26.9735 2.07652 28.0852 3.44824 28.0866ZM18.0416 12.4192H26.3237C26.6147 12.4192 26.8507 12.6554 26.8507 12.9462C26.8507 13.2375 26.6147 13.4733 26.3237 13.4733H18.0416C17.7503 13.4733 17.5146 13.2375 17.5146 12.9462C17.5146 12.6554 17.7503 12.4192 18.0416 12.4192ZM18.0416 16.2296H26.3237C26.6147 16.2296 26.8507 16.4658 26.8507 16.7567C26.8507 17.0479 26.6147 17.2837 26.3237 17.2837H18.0416C17.7503 17.2837 17.5146 17.0479 17.5146 16.7567C17.5146 16.4658 17.7503 16.2296 18.0416 16.2296ZM18.0416 20.0401H26.3237C26.6147 20.0401 26.8507 20.2763 26.8507 20.5671C26.8507 20.8584 26.6147 21.0942 26.3237 21.0942H18.0416C17.7503 21.0942 17.5146 20.8584 17.5146 20.5671C17.5146 20.2763 17.7503 20.0401 18.0416 20.0401ZM18.0416 23.8505H26.3237C26.6147 23.8505 26.8507 24.0868 26.8507 24.3776C26.8507 24.6689 26.6147 24.9046 26.3237 24.9046H18.0416C17.7503 24.9046 17.5146 24.6689 17.5146 24.3776C17.5146 24.0868 17.7503 23.8505 18.0416 23.8505ZM3.97528 12.9462C3.97528 12.6554 4.21104 12.4192 4.50232 12.4192H14.0643C14.3556 12.4192 14.5914 12.6554 14.5914 12.9462V24.3776C14.5914 24.6689 14.3556 24.9046 14.0643 24.9046H4.50232C4.21104 24.9046 3.97528 24.6689 3.97528 24.3776V12.9462Z" fill="#032F57"/>
        <path d="M11.3047 4.58911C10.9812 4.58888 10.7186 4.85122 10.7186 5.17497C10.7186 5.49849 10.981 5.76083 11.3047 5.76083C11.6282 5.76083 11.8906 5.49849 11.8906 5.17497C11.8904 4.85146 11.6282 4.58958 11.3047 4.58911Z" fill="#032F57"/>
        <path d="M3.71001 4.58911C3.38672 4.58911 3.12415 4.85145 3.12415 5.17497C3.12415 5.49849 3.38672 5.76083 3.71001 5.76083C4.034 5.76083 4.29634 5.49849 4.29634 5.17497C4.29587 4.85145 4.03376 4.58958 3.71001 4.58911Z" fill="#032F57"/>
        <path d="M5.02954 13.4733H13.5375V23.8505H5.02954V13.4733Z" fill="#032F57"/>
    </symbol>

    <symbol id="problems__icon-7" width="32" height="32" fill="none" viewBox="0 0 32 32">
        <path d="M7.19123 20.1091L8.85115 21.769L11.6859 18.9066C8.96207 15.6598 8.38255 11.3707 9.6487 7.73895L13.4207 11.5109C13.3886 15.3034 16.4762 18.6178 20.505 18.6178C22.8701 18.6178 24.9678 17.4527 26.2552 15.6665L21.9726 11.3839L19.0029 14.3538L7.95831 3.30928V5.81355H6.02141L6.02148 0.00286865H11.8321V1.9397L9.32788 1.93976L19.0029 11.6147L21.9726 8.64471L27.1944 13.8664C28.0507 11.4181 27.5296 8.53902 25.5146 6.52387C22.9328 3.94225 18.8775 3.77684 16.1077 5.97806L12.9762 2.84649C17.4872 -1.07482 24.3318 -0.896366 28.6332 3.40509C30.8043 5.57615 31.9999 8.46283 31.9999 11.5333C31.9999 17.8717 26.8433 23.0285 20.5049 23.0285C17.7414 23.0285 15.127 22.0594 13.049 20.2828L10.2207 23.1386L11.8873 24.8053L4.69626 31.9965L0 27.3003L7.19123 20.1091Z" fill="#032F57"/>
        <path d="M16.4713 26.1874H31.9664V28.1243H16.4713V26.1874Z" fill="#032F57"/>
        <path d="M10.6606 30.0612H22.282V31.998H10.6606V30.0612Z" fill="#032F57"/>
    </symbol>
        

    <symbol id="problems__icon-8" width="35" height="32" fill="none" viewBox="0 0 35 32">
        <path d="M27.9958 17.7669C27.7967 17.5014 27.4201 17.4476 27.1546 17.6467C27.0271 17.7424 26.9427 17.8848 26.9203 18.0427L26.5868 20.3801C26.5788 20.4101 26.5682 20.4394 26.5555 20.4678C27.1684 19.6541 27.663 18.7577 28.0247 17.8053L27.9958 17.7669Z" fill="#032F57"/>
        <path d="M25.9914 20.8956C25.963 20.8956 25.9347 20.8938 25.9066 20.8902L22.3374 20.3801C22.0089 20.333 21.7808 20.0286 21.8279 19.7C21.8279 19.7 21.8279 19.7 21.8279 19.6999L22.1614 17.3625C22.2079 17.0339 21.9792 16.7298 21.6506 16.6834C21.4934 16.6611 21.3338 16.702 21.2066 16.7971L19.3174 18.2133C19.0519 18.4124 18.6753 18.3587 18.4762 18.0932L16.3131 15.209C16.114 14.9434 16.1677 14.5668 16.4332 14.3677L18.3218 12.9515C18.5873 12.7524 18.6411 12.3758 18.442 12.1102C18.3463 11.9827 18.2039 11.8984 18.046 11.8759L15.7086 11.5418C15.3801 11.4951 15.1516 11.1908 15.1984 10.8623C15.1984 10.8621 15.1984 10.8618 15.1984 10.8616L15.7086 7.29303C15.7553 6.9645 16.0596 6.73602 16.3881 6.78281C16.3883 6.78281 16.3886 6.78288 16.3888 6.78288L18.7262 7.11697C18.9666 7.15182 19.2042 7.03751 19.3271 6.82795C19.4547 6.61967 19.4403 6.35424 19.291 6.16098L17.8759 4.27303C17.6768 4.00752 17.7306 3.63092 17.9961 3.4318L18.3368 3.17643C17.7849 3.14977 17.2317 3.16457 16.682 3.2209C10.7472 3.89853 6.48547 9.25902 7.1631 15.1939C7.53226 18.4269 9.33744 21.322 12.0781 23.0762C13.0787 23.6966 13.6933 24.785 13.7077 25.9622V28.3904C13.7077 29.3859 14.5147 30.193 15.5103 30.193H20.3173C21.3129 30.193 22.1199 29.3859 22.1199 28.3904V26.0121C22.1352 24.8072 22.7623 23.6929 23.7843 23.0546C24.7316 22.44 25.5776 21.6819 26.2918 20.8073C26.2012 20.8628 26.0976 20.8933 25.9914 20.8956ZM18.5147 28.3904H17.3129V26.5877H18.5147V28.3904ZM17.3129 25.386C17.3126 23.7973 16.3329 22.3732 14.8493 21.8048C10.5224 20.1128 8.38626 15.2337 10.0782 10.9067C10.7333 9.23123 11.9083 7.80993 13.4307 6.85138L14.0682 7.86806C10.6977 9.98893 9.68467 14.4405 11.8055 17.811C12.6272 19.1169 13.8462 20.1248 15.2832 20.6865C17.2306 21.4314 18.5162 23.3009 18.5147 25.386H17.3129Z" fill="#032F57"/>
        <path d="M11.7536 23.5834C11.3976 23.3526 11.0547 23.102 10.7267 22.8329C9.81964 24.5987 7.65288 25.2948 5.88706 24.3878C4.68516 23.7704 3.93106 22.5311 3.93504 21.1799C3.93782 19.3632 5.29077 17.8319 7.09324 17.6053C6.87272 16.942 6.71341 16.26 6.61735 15.5677L6.51219 16.0676C6.37565 16.7171 5.73834 17.1329 5.08887 16.9963C4.93332 16.9637 4.7858 16.9004 4.65489 16.8103L3.40507 15.9522L2.31027 17.0446L3.17073 18.2957C3.54733 18.8422 3.40957 19.5905 2.86308 19.9671C2.73201 20.0574 2.58435 20.1208 2.42865 20.1536L0.930664 20.469V21.8967L2.42865 22.2122C3.07812 22.3489 3.49377 22.9863 3.357 23.6358C3.32418 23.7917 3.26063 23.9395 3.17013 24.0707L2.31027 25.3151L3.40507 26.4075L4.65369 25.547C5.20018 25.1704 5.94857 25.3082 6.32517 25.8547C6.41545 25.9857 6.47885 26.1334 6.51159 26.2891L6.82645 27.7895H8.25473L8.56959 26.2915C8.70629 25.642 9.34359 25.2263 9.99306 25.363C10.1488 25.3958 10.2964 25.4591 10.4275 25.5494L11.6755 26.4075L12.9644 25.1186C12.7483 24.4835 12.3209 23.9416 11.7536 23.5834Z" fill="#032F57"/>
        <path d="M20.3174 30.7938H15.5104V31.9956H20.3174V30.7938Z" fill="#032F57"/>
        <path d="M32.917 10.3587C31.9315 10.2178 31.2468 9.30451 31.3877 8.319C31.4554 7.84573 31.7083 7.41874 32.0908 7.13197L33.4987 6.07563L32.0566 4.15283L30.6487 5.20857C29.8524 5.80614 28.7225 5.64495 28.125 4.84872C27.8384 4.46686 27.715 3.98684 27.782 3.5141L28.0307 1.77156L25.6519 1.43207L25.4031 3.17461C25.2621 4.16012 24.3489 4.84481 23.3634 4.70391C22.8902 4.63623 22.4632 4.38334 22.1764 4.00081L21.1201 2.59055L19.1973 4.03265L20.253 5.4405C20.8504 6.23689 20.6891 7.36676 19.8928 7.96425C19.5101 8.25132 19.0291 8.3745 18.5555 8.30668L16.813 8.05792L16.4717 10.4374L18.2142 10.6861C19.1997 10.8271 19.8844 11.7403 19.7435 12.7258C19.6758 13.1991 19.423 13.6261 19.0404 13.9128L17.6332 14.9692L19.0753 16.892L20.4831 15.8362C21.2795 15.2388 22.4094 15.4001 23.0069 16.1965C23.2939 16.5791 23.4171 17.0602 23.3493 17.5337L23.1005 19.2763L25.4848 19.6175L25.7336 17.875C25.8746 16.8895 26.7877 16.2048 27.7732 16.3457C28.2465 16.4134 28.6735 16.6663 28.9603 17.0488L30.0166 18.4561L31.9394 17.014L30.8801 15.6037C30.2829 14.8072 30.4444 13.6773 31.241 13.0801C31.6228 12.7938 32.1026 12.6706 32.5751 12.7375L34.3177 12.9863L34.6572 10.6074L32.917 10.3587ZM25.5665 14.128C23.5754 14.128 21.9613 12.5139 21.9613 10.5227C21.9613 8.53156 23.5754 6.91746 25.5665 6.91746C27.5577 6.91746 29.1718 8.53156 29.1718 10.5227C29.1695 12.5129 27.5567 14.1256 25.5665 14.128Z" fill="#032F57"/>
        <path d="M33.5366 22.3816H29.3304V23.5833H33.5366V22.3816Z" fill="#032F57"/>
        <path d="M29.1142 25.5248L28.345 26.4481L31.9505 29.452L32.7197 28.5287L29.1142 25.5248Z" fill="#032F57"/>
        <path d="M26.927 27.1886H25.7252V31.3947H26.927V27.1886Z" fill="#032F57"/>
        <path d="M5.1492 9.18011L0.342529 10.3817L0.633808 11.5469L5.44048 10.3453L5.1492 9.18011Z" fill="#032F57"/>
        <path d="M2.03868 3.26628L1.34058 4.24365L5.54637 7.24772L6.24448 6.27034L2.03868 3.26628Z" fill="#032F57"/>
        <path d="M7.65327 -0.000432251L6.48901 0.297241L7.71796 5.10387L8.88221 4.8062L7.65327 -0.000432251Z" fill="#032F57"/>
    </symbol>
        
    <symbol id="problems__icon-9" width="33" height="33" fill="none" viewBox="0 0 33 33">
        <g clip-path="url(#clip0)">
        <path d="M14.4396 7.73877C8.71724 7.76401 4.44083 10.289 3.74925 15.248H2.96651C1.32815 15.248 0 16.5762 0 18.2145V19.6769C0 20.1996 0.401629 20.6493 0.923676 20.6739C1.48105 20.7001 1.94118 20.2559 1.94118 19.7044V18.2145C1.94118 17.6483 2.4002 17.1892 2.96651 17.1892H3.68856C3.86876 19.6093 5.00681 21.7535 7.00739 23.2244L7.67904 27.9623C7.72427 28.2814 7.99739 28.5185 8.31969 28.5185H11.8669C12.2242 28.5185 12.5139 28.2289 12.5139 27.8715V25.1927C13.1088 25.2525 13.7786 25.2915 15.1166 25.2592C15.2583 25.2558 15.3816 25.1602 15.4203 25.0238L16.6521 20.6717C16.673 20.598 16.667 20.5192 16.6352 20.4494L13.6494 13.899C13.6211 13.8368 13.6132 13.7673 13.6268 13.7004L14.7586 8.12714C14.7995 7.92603 14.6448 7.73787 14.4396 7.73877Z" fill="#032F57"/>
        <path d="M29.7985 12.8598C29.2875 11.8016 28.5407 10.9505 27.6228 10.2706C27.5105 10.1874 27.4656 10.0406 27.5105 9.90822L29.1463 5.08556C29.2194 4.86996 29.0792 4.64142 28.854 4.607C24.4334 3.9303 22.1295 6.1228 20.9941 7.98115C20.9938 7.98115 20.9935 7.98108 20.9932 7.98102C19.9057 7.84326 18.7856 7.77202 17.6676 7.74633C17.5112 7.74271 17.3749 7.85245 17.3438 8.00574L16.1877 13.7003C16.1742 13.7672 16.1821 13.8367 16.2104 13.8989L19.1962 20.4493C19.228 20.519 19.234 20.5978 19.2131 20.6716L18.0373 24.8259C17.9772 25.038 18.1422 25.2465 18.3625 25.2376C19.1574 25.2053 19.95 25.1474 20.7279 25.057V27.8717C20.7279 28.229 21.0176 28.5187 21.375 28.5187H24.9227C25.2447 28.5187 25.5176 28.282 25.5632 27.9634L26.1632 23.7707C26.1781 23.666 26.2439 23.5762 26.338 23.528C28.0035 22.6756 29.3107 21.4387 30.0064 19.6708C30.0549 19.5476 30.1742 19.467 30.3065 19.467H32.3529C32.7103 19.467 33 19.1773 33 18.82V13.982C33 13.6561 32.7577 13.3811 32.4344 13.3401L30.0474 13.0371C29.9401 13.0232 29.8456 12.9572 29.7985 12.8598ZM25.2463 15.5127H24.0182C23.4824 15.5127 23.0476 15.0785 23.0476 14.5421C23.0476 14.0064 23.4824 13.5715 24.0182 13.5715H25.2463C25.7821 13.5715 26.2169 14.0064 26.2169 14.5421C26.2169 15.0785 25.7821 15.5127 25.2463 15.5127Z" fill="#032F57"/>
        </g>
        <defs>
        <clipPath id="clip0">
        <rect width="33" height="33" fill="white"/>
        </clipPath>
        </defs>
    </symbol>
        
    <symbol id="problems__icon-10" width="33" height="35" fill="none" viewBox="0 0 33 35">
        <path d="M16.5 16.4746C17.0663 16.4746 17.5254 16.0155 17.5254 15.4492C17.5254 14.8829 17.0663 14.4238 16.5 14.4238C15.9337 14.4238 15.4746 14.8829 15.4746 15.4492C15.4746 16.0155 15.9337 16.4746 16.5 16.4746Z" fill="#032F57"/>
        <path d="M30.4698 22.0132C30.2656 21.8955 30.0501 21.8096 29.83 21.7418V13.2524C30.0494 13.1849 30.2663 13.1044 30.4698 12.9868C31.9379 12.1387 32.4435 10.2541 31.5963 8.78418C30.7472 7.31616 28.8626 6.80853 27.3946 7.65769H27.3926C27.2269 7.75359 27.0774 7.86632 26.9369 7.98649L19.5196 3.63515C19.5533 3.45331 19.5761 3.26758 19.5761 3.07617C19.5761 1.3799 18.1962 0 16.4999 0C14.8037 0 13.4237 1.3799 13.4237 3.07617C13.4237 3.26758 13.4465 3.45331 13.4802 3.63515L6.06288 7.98643C5.92233 7.86625 5.77283 7.75346 5.60713 7.65762H5.60514C4.13514 6.80948 2.25157 7.31616 1.40344 8.78514C0.556257 10.2541 1.06198 12.1387 2.52993 12.9868C2.73357 13.1044 2.95041 13.1849 3.16977 13.2524V21.7417C2.94986 21.8094 2.73432 21.8952 2.52993 22.0131C1.06198 22.8613 0.556326 24.7458 1.40344 26.2158C2.25875 27.6949 4.14595 28.1833 5.60713 27.3423C5.77283 27.2464 5.92233 27.1337 6.06288 27.0135L13.4802 31.3648C13.4465 31.5467 13.4237 31.7324 13.4237 31.9238C13.4237 33.6201 14.8037 35 16.4999 35C18.1962 35 19.5761 33.6201 19.5761 31.9238C19.5761 31.7594 19.5526 31.601 19.5276 31.4434L27.198 27.2005C28.7527 28.27 30.7377 27.7012 31.5964 26.2147C32.4435 24.7458 31.9379 22.8613 30.4698 22.0132ZM17.5253 26.6285C18.2323 26.5383 18.9226 26.3946 19.5761 26.1616V23.6523C19.5761 21.9561 18.1962 20.5762 16.4999 20.5762C14.8037 20.5762 13.4237 21.9561 13.4237 23.6523V26.1616C14.0773 26.3946 14.7676 26.5383 15.4745 26.6285V29.0365C15.1187 29.1635 14.7967 29.3531 14.5147 29.5937L7.0785 25.2314C7.14569 24.8671 7.1487 24.4934 7.08075 24.1222L9.08149 22.9674C9.71498 23.8237 10.487 24.5718 11.373 25.1662V23.6523C11.373 20.8255 13.6731 18.5254 16.4999 18.5254C14.8037 18.5254 13.4237 17.1455 13.4237 15.4492C13.4237 13.7529 14.8037 12.373 16.4999 12.373C18.1962 12.373 19.5761 13.7529 19.5761 15.4492C19.5761 17.1455 18.1962 18.5254 16.4999 18.5254C19.3268 18.5254 21.6269 20.8255 21.6269 23.6523V25.1663C22.5128 24.5718 23.2849 23.8237 23.9184 22.9675L25.919 24.1222C25.8325 24.5949 25.852 25.0746 25.9824 25.5275L18.5454 29.6434C18.2503 29.3784 17.9062 29.1724 17.5253 29.0365V26.6285ZM5.22062 21.882V13.1182C5.51881 12.9953 5.80127 12.8538 6.0436 12.6473L8.05398 13.8078C7.55681 14.9404 7.27141 16.1859 7.27141 17.5C7.27141 18.8143 7.56029 20.0577 8.05795 21.1899L6.04347 22.3527C5.80113 22.1462 5.51881 22.0049 5.22062 21.882ZM27.7792 13.118V21.8818C27.481 22.0047 27.1986 22.1462 26.9562 22.3527L24.9419 21.1899C25.4396 20.0577 25.7284 18.8143 25.7284 17.5C25.7284 16.1859 25.443 14.9404 24.9459 13.8078L26.9563 12.6473C27.1987 12.8538 27.481 12.9951 27.7792 13.118ZM25.9191 10.8778L23.9015 12.0423C22.4134 10.0304 20.1371 8.66886 17.5253 8.37512V5.96347C17.8812 5.83652 18.2031 5.64689 18.4851 5.40634L25.9214 9.76855C25.8541 10.1329 25.8511 10.5065 25.9191 10.8778ZM15.4745 8.37512C12.8627 8.66886 10.5864 10.0304 9.09838 12.0423L7.08089 10.8778C7.14897 10.5065 7.14583 10.133 7.0785 9.76862L14.5147 5.40634C14.7967 5.64689 15.1187 5.83652 15.4745 5.96347V8.37512Z" fill="#032F57"/>
    </symbol>
        

        
</svg>
