<svg display="none" xmlns="http://www.w3.org/2000/svg">
    <symbol id="documnet" width="24" height="24" fill="none" viewBox="0 0 24 24">
        <g>
            <path d="M4.38118 10.0972V18.9849C4.38118 19.5659 4.61197 20.1231 5.02278 20.5339C5.43359 20.9447 5.99078 21.1755 6.57175 21.1755H16.7944C17.3754 21.1755 17.9326 20.9447 18.3434 20.5339C18.7542 20.1231 18.985 19.5659 18.985 18.9849V4.38114C18.985 3.80016 18.7542 3.24298 18.3434 2.83217C17.9326 2.42136 17.3754 2.19057 16.7944 2.19057H12.2878C11.9006 2.19063 11.5293 2.34444 11.2555 2.61818L4.8088 9.06485C4.53505 9.33866 4.38124 9.70998 4.38118 10.0972Z" stroke="#C9C101" stroke-width="1.46038" stroke-linejoin="round"/>
            <path d="M15.3341 16.7944H8.0322M11.6832 2.55566V8.03209C11.6832 8.41941 11.5293 8.79086 11.2554 9.06474C10.9815 9.33861 10.6101 9.49247 10.2228 9.49247H4.74635L11.6832 2.55566ZM15.3341 13.1434H8.0322H15.3341Z" stroke="#C9C101" stroke-width="1.46038" stroke-linecap="round" stroke-linejoin="round"/>
        </g>
    </symbol>
</svg>
